<svg width="16" height="16" viewBox="0 0 16 16" fill="none" xmlns="http://www.w3.org/2000/svg">
<path d="M10.793 1.3335H5.20634C2.77967 1.3335 1.33301 2.78016 1.33301 5.20683V10.7868C1.33301 13.2202 2.77967 14.6668 5.20634 14.6668H10.7863C13.213 14.6668 14.6597 13.2202 14.6597 10.7935V5.20683C14.6663 2.78016 13.2197 1.3335 10.793 1.3335ZM4.49967 9.42683C4.49967 9.70016 4.27301 9.92683 3.99967 9.92683C3.72634 9.92683 3.49967 9.70016 3.49967 9.42683V6.5735C3.49967 6.30016 3.72634 6.0735 3.99967 6.0735C4.27301 6.0735 4.49967 6.30016 4.49967 6.5735V9.42683ZM6.49967 10.3802C6.49967 10.6535 6.27301 10.8802 5.99967 10.8802C5.72634 10.8802 5.49967 10.6535 5.49967 10.3802V5.62016C5.49967 5.34683 5.72634 5.12016 5.99967 5.12016C6.27301 5.12016 6.49967 5.34683 6.49967 5.62016V10.3802ZM8.49967 11.3335C8.49967 11.6068 8.27301 11.8335 7.99967 11.8335C7.72634 11.8335 7.49967 11.6068 7.49967 11.3335V4.66683C7.49967 4.3935 7.72634 4.16683 7.99967 4.16683C8.27301 4.16683 8.49967 4.3935 8.49967 4.66683V11.3335ZM10.4997 10.3802C10.4997 10.6535 10.273 10.8802 9.99967 10.8802C9.72634 10.8802 9.49967 10.6535 9.49967 10.3802V5.62016C9.49967 5.34683 9.72634 5.12016 9.99967 5.12016C10.273 5.12016 10.4997 5.34683 10.4997 5.62016V10.3802ZM12.4997 9.42683C12.4997 9.70016 12.273 9.92683 11.9997 9.92683C11.7263 9.92683 11.4997 9.70016 11.4997 9.42683V6.5735C11.4997 6.30016 11.7263 6.0735 11.9997 6.0735C12.273 6.0735 12.4997 6.30016 12.4997 6.5735V9.42683Z" fill="white"/>
</svg>
