<svg width="25" height="25" viewBox="0 0 25 25" fill="none" xmlns="http://www.w3.org/2000/svg">
<path d="M16.69 2.5H8.31C4.67 2.5 2.5 4.67 2.5 8.31V16.68C2.5 20.33 4.67 22.5 8.31 22.5H16.68C20.32 22.5 22.49 20.33 22.49 16.69V8.31C22.5 4.67 20.33 2.5 16.69 2.5ZM7.25 14.64C7.25 15.05 6.91 15.39 6.5 15.39C6.09 15.39 5.75 15.05 5.75 14.64V10.36C5.75 9.95 6.09 9.61 6.5 9.61C6.91 9.61 7.25 9.95 7.25 10.36V14.64ZM10.25 16.07C10.25 16.48 9.91 16.82 9.5 16.82C9.09 16.82 8.75 16.48 8.75 16.07V8.93C8.75 8.52 9.09 8.18 9.5 8.18C9.91 8.18 10.25 8.52 10.25 8.93V16.07ZM13.25 17.5C13.25 17.91 12.91 18.25 12.5 18.25C12.09 18.25 11.75 17.91 11.75 17.5V7.5C11.75 7.09 12.09 6.75 12.5 6.75C12.91 6.75 13.25 7.09 13.25 7.5V17.5ZM16.25 16.07C16.25 16.48 15.91 16.82 15.5 16.82C15.09 16.82 14.75 16.48 14.75 16.07V8.93C14.75 8.52 15.09 8.18 15.5 8.18C15.91 8.18 16.25 8.52 16.25 8.93V16.07ZM19.25 14.64C19.25 15.05 18.91 15.39 18.5 15.39C18.09 15.39 17.75 15.05 17.75 14.64V10.36C17.75 9.95 18.09 9.61 18.5 9.61C18.91 9.61 19.25 9.95 19.25 10.36V14.64Z" fill="#8D929B"/>
</svg>
