<svg width="44" height="44" viewBox="0 0 44 44" fill="none" xmlns="http://www.w3.org/2000/svg">
<rect y="0.00292969" width="44" height="44" rx="12" fill="#1E1E1E" fill-opacity="0.7"/>
<path d="M20.1883 16.2048C20.1883 15.6044 19.7015 15.1176 19.1011 15.1176C18.5007 15.1176 18.0139 15.6044 18.0139 16.2048L18.0139 27.8017C18.0139 28.4022 18.5007 28.8889 19.1011 28.8889C19.7015 28.8889 20.1883 28.4022 20.1883 27.8017L20.1883 16.2048Z" fill="#FAFAFA"/>
<path d="M25.9868 16.2048C25.9868 15.6044 25.5 15.1176 24.8995 15.1176C24.2991 15.1176 23.8123 15.6044 23.8123 16.2048V27.8017C23.8123 28.4022 24.2991 28.8889 24.8995 28.8889C25.5 28.8889 25.9868 28.4022 25.9868 27.8017V16.2048Z" fill="#FAFAFA"/>
<path fill-rule="evenodd" clip-rule="evenodd" d="M22.0003 6.41992C13.3939 6.41992 6.41699 13.3968 6.41699 22.0033C6.41699 30.6097 13.3939 37.5866 22.0003 37.5866C30.6068 37.5866 37.5837 30.6097 37.5837 22.0033C37.5837 13.3968 30.6068 6.41992 22.0003 6.41992ZM8.59141 22.0033C8.59141 14.5977 14.5948 8.59434 22.0003 8.59434C29.4059 8.59434 35.4092 14.5977 35.4092 22.0033C35.4092 29.4088 29.4059 35.4122 22.0003 35.4122C14.5948 35.4122 8.59141 29.4088 8.59141 22.0033Z" fill="#FAFAFA"/>
</svg>
