<svg width="17" height="16" viewBox="0 0 17 16" fill="none" xmlns="http://www.w3.org/2000/svg">
<path d="M14.0731 8.48672C13.8264 8.48672 13.6197 8.30005 13.5931 8.05338C13.4331 6.58672 12.6464 5.26672 11.4331 4.42672C11.2131 4.27338 11.1597 3.97338 11.3131 3.75338C11.4664 3.53338 11.7664 3.48005 11.9864 3.63338C13.4331 4.64005 14.3664 6.21338 14.5597 7.95338C14.5864 8.22005 14.3931 8.46005 14.1264 8.48672C14.1064 8.48672 14.0931 8.48672 14.0731 8.48672Z" fill="white"/>
<path d="M2.9932 8.52013C2.97987 8.52013 2.95987 8.52013 2.94653 8.52013C2.67987 8.49347 2.48653 8.25347 2.5132 7.9868C2.6932 6.2468 3.6132 4.67347 5.04653 3.66013C5.25987 3.5068 5.56653 3.56013 5.71987 3.77347C5.8732 3.99347 5.81987 4.29347 5.60653 4.4468C4.40653 5.30013 3.62653 6.62013 3.47987 8.08013C3.4532 8.33347 3.23987 8.52013 2.9932 8.52013Z" fill="white"/>
<path d="M11.1601 14.0666C10.3401 14.4599 9.46007 14.6599 8.54007 14.6599C7.58007 14.6599 6.66673 14.4466 5.8134 14.0132C5.5734 13.8999 5.48007 13.6066 5.60007 13.3666C5.7134 13.1266 6.00673 13.0332 6.24673 13.1466C6.66673 13.3599 7.1134 13.5066 7.56673 13.5932C8.18007 13.7132 8.80673 13.7199 9.42007 13.6132C9.8734 13.5332 10.3201 13.3932 10.7334 13.1932C10.9801 13.0799 11.2734 13.1732 11.3801 13.4199C11.5001 13.6599 11.4067 13.9532 11.1601 14.0666Z" fill="white"/>
<path d="M8.53332 1.33984C7.49999 1.33984 6.65332 2.17984 6.65332 3.21984C6.65332 4.25984 7.49332 5.09984 8.53332 5.09984C9.57332 5.09984 10.4133 4.25984 10.4133 3.21984C10.4133 2.17984 9.57332 1.33984 8.53332 1.33984Z" fill="white"/>
<path d="M3.86633 9.24707C2.83299 9.24707 1.98633 10.0871 1.98633 11.1271C1.98633 12.1671 2.82633 13.0071 3.86633 13.0071C4.90633 13.0071 5.74633 12.1671 5.74633 11.1271C5.74633 10.0871 4.89966 9.24707 3.86633 9.24707Z" fill="white"/>
<path d="M13.1329 9.24707C12.0996 9.24707 11.2529 10.0871 11.2529 11.1271C11.2529 12.1671 12.0929 13.0071 13.1329 13.0071C14.1729 13.0071 15.0129 12.1671 15.0129 11.1271C15.0129 10.0871 14.1729 9.24707 13.1329 9.24707Z" fill="white"/>
</svg>
