<svg width="16" height="16" viewBox="0 0 16 16" fill="none" xmlns="http://www.w3.org/2000/svg">
<path d="M4.50478 4.83398C3.80609 4.83829 2.7577 4.7151 2.21408 4.23342C1.90229 3.95717 1.84268 3.58445 2.12821 3.26814C2.60625 2.73853 3.65863 2.62967 4.32938 2.59526C5.05222 2.57489 6.12919 2.70498 6.66934 3.2297C7.16878 3.71489 6.72444 4.24517 6.209 4.4897C5.68 4.74064 5.086 4.83085 4.50478 4.83398ZM4.37175 3.14054C3.84891 3.14714 2.90098 3.24048 2.51917 3.62954C2.26732 3.8862 3.45484 4.31545 4.44122 4.29076C4.96269 4.30242 5.88106 4.18998 6.26731 3.8247C6.38506 3.71339 6.29934 3.60904 6.19053 3.52535C5.81175 3.23404 4.84597 3.10188 4.37175 3.14054Z" fill="white"/>
<path d="M11.7737 4.83398C11.4645 4.57064 10.9003 4.22961 10.544 3.99667C10.4032 3.90461 10.2388 3.81902 10.115 3.70552C9.93046 3.53642 10.1133 3.29273 10.3128 3.25977C10.496 3.27211 10.7052 3.4668 10.8518 3.56686L11.4287 3.95508C11.5435 4.03273 11.6555 4.11477 11.7737 4.18717C11.7734 4.05752 11.7537 3.87536 11.8424 3.76992C11.9653 3.62367 12.2196 3.67742 12.2815 3.85661C12.3326 4.00445 12.3099 4.33502 12.3095 4.49964C12.7242 4.76692 13.1347 5.04023 13.5441 5.31564L13.8267 5.50461C14.3449 5.84902 13.9284 6.15377 13.6953 6.05255C13.5711 5.99858 13.4215 5.87611 13.3037 5.79823L12.3095 5.13339V10.9872L13.4547 12.124C13.5788 12.2473 13.967 12.5949 14.036 12.7251C14.1608 12.9605 13.9096 13.1347 13.696 13.064C13.5688 12.9974 13.2977 12.6894 13.1845 12.5754L12.5578 11.9557C12.3965 11.7955 12.2382 11.6285 12.0663 11.4797C11.9033 11.6019 11.7414 11.7896 11.5952 11.9364L10.7979 12.7315C10.6251 12.9042 10.3917 13.2649 10.1256 13.0111C9.87409 12.7713 10.3638 12.426 10.5208 12.2623C10.9334 11.8324 11.3571 11.4133 11.7737 10.9872L11.7737 5.51408C11.7737 5.28789 11.7804 5.05998 11.7737 4.83398Z" fill="white"/>
<path d="M4.12698 10.9873V5.29422C4.31061 5.28609 4.49477 5.29928 4.67858 5.29422V11.015C4.91455 11.2196 5.11895 11.4612 5.34189 11.6797L5.99183 12.3257C6.10677 12.4414 6.24052 12.5621 6.3397 12.6914C6.46855 12.8592 6.34745 13.1092 6.13136 13.1105C5.93573 13.1118 5.80145 12.8926 5.6758 12.7699C5.30108 12.4041 4.94067 12.0232 4.56664 11.6563C4.51439 11.6008 4.46458 11.5469 4.3992 11.5067C4.25048 11.5794 3.26802 12.61 3.09019 12.7798C2.92302 12.9394 2.74143 13.2361 2.48972 13.0002C2.25888 12.7838 2.57992 12.538 2.72463 12.3975C2.83952 12.286 2.95023 12.1699 3.06399 12.0572L4.12698 10.9873Z" fill="white"/>
<path d="M8.11924 11.6844L8.08277 11.6851C6.89102 11.703 5.43693 11.1656 5.42193 9.7823C5.41527 9.16911 5.42187 8.55502 5.42165 7.94174L5.42152 7.41461C5.42152 7.2753 5.41177 7.12561 5.44077 6.9888C5.61793 6.15267 7.26296 5.95658 7.93496 5.95196C8.60502 5.88717 9.83905 6.14008 10.3148 6.57027C10.6861 6.90605 10.6055 7.23643 10.6053 7.68452L10.6053 9.5198C10.6058 9.72905 10.621 9.94236 10.5769 10.1483C10.3448 11.2306 9.1004 11.648 8.11924 11.6844ZM7.7863 6.47561C7.2708 6.52555 6.7249 6.57418 6.26152 6.82618C5.99368 6.97183 5.77558 7.13002 6.0929 7.35736C6.6773 7.77605 7.54065 7.8373 8.23621 7.82752C8.71515 7.79577 9.89502 7.69086 10.0914 7.15727C9.8654 6.56283 8.29152 6.46952 7.7863 6.47561ZM5.9524 7.91905C5.95962 8.35214 5.95212 8.78658 5.95208 9.21983C5.95208 9.73999 5.87749 10.1605 6.28274 10.5509C7.11677 11.3543 9.08715 11.3732 9.82687 10.4554C10.1511 10.0363 10.0701 9.72121 10.07 9.21446L10.0699 7.91905C9.13037 8.51989 7.26724 8.46277 6.29337 8.06339C6.18115 8.01739 6.06896 7.95096 5.9524 7.91905Z" fill="white"/>
<path d="M8.08793 10.4255C7.70783 10.4699 6.93762 10.1812 7.29212 9.73698C7.43852 9.55354 7.6889 9.49633 7.91033 9.47139C8.29302 9.42489 9.06374 9.73714 8.71887 10.1545C8.56821 10.3367 8.31196 10.4009 8.08793 10.4255Z" fill="white"/>
</svg>
