<svg width="16" height="16" viewBox="0 0 16 16" fill="none" xmlns="http://www.w3.org/2000/svg">
<path d="M7.68612 5.00165C7.69975 4.83087 7.68768 4.65903 7.70537 4.48831C7.76112 3.95075 8.00522 3.40478 8.366 3.00181C8.90059 2.4047 9.54137 2.12495 10.3348 2.08093C10.4125 2.07842 10.49 2.07644 10.5677 2.08027C11.2744 2.1151 11.8855 2.45258 12.3525 2.97325C12.3683 2.99084 12.3839 3.00862 12.3992 3.02659C12.4146 3.04456 12.4298 3.06272 12.4447 3.08107C12.4596 3.09942 12.4743 3.11796 12.4887 3.13668C12.5032 3.15539 12.5174 3.17428 12.5314 3.19334C12.5454 3.21242 12.5591 3.23167 12.5726 3.25109C12.5861 3.27049 12.5993 3.29006 12.6124 3.30981C12.6254 3.32956 12.6381 3.34946 12.6507 3.36953C12.6632 3.38957 12.6754 3.40978 12.6875 3.43015C12.6995 3.45053 12.7112 3.47104 12.7227 3.49168C12.7342 3.51235 12.7455 3.53315 12.7565 3.55409C12.7674 3.57503 12.7782 3.5961 12.7886 3.61731C12.7991 3.63852 12.8093 3.65985 12.8192 3.68131C12.8291 3.70277 12.8388 3.72435 12.8482 3.74606C12.8576 3.76777 12.8667 3.78958 12.8756 3.8115C12.8844 3.83343 12.893 3.85548 12.9012 3.87762C12.9096 3.89975 12.9176 3.92199 12.9253 3.94434C12.9331 3.96667 12.9405 3.98911 12.9477 4.01165C12.9549 4.03417 12.9618 4.05678 12.9684 4.07946C12.9751 4.10217 12.9814 4.12495 12.9874 4.14781C12.9935 4.17066 12.9993 4.19359 13.0047 4.21659C13.0102 4.23961 13.0154 4.26268 13.0203 4.28581C13.0252 4.30893 13.0299 4.33212 13.0342 4.35537C13.0385 4.37862 13.0426 4.40191 13.0463 4.42525C13.0501 4.4486 13.0535 4.472 13.0567 4.49543C13.0598 4.51887 13.0627 4.54234 13.0653 4.56584C13.0679 4.58934 13.0702 4.61287 13.0722 4.63643C13.0742 4.66 13.0759 4.68358 13.0773 4.70718C13.0787 4.73079 13.0798 4.7544 13.0806 4.77803C13.0814 4.80167 13.082 4.82532 13.0822 4.84896C13.0824 4.87259 13.0823 4.89623 13.082 4.91987C13.0816 4.94352 13.081 4.96715 13.08 4.99078C13.0791 5.0144 13.0778 5.03802 13.0763 5.06162C13.0399 5.70734 12.7447 6.33743 12.2898 6.79384C12.2668 6.81719 12.2433 6.8401 12.2194 6.86256C12.1955 6.88502 12.1712 6.90701 12.1464 6.92853C12.1217 6.95005 12.0966 6.9711 12.071 6.99168C12.0455 7.01225 12.0195 7.03232 11.9932 7.0519C11.9669 7.07149 11.9403 7.09056 11.9132 7.10912C11.8862 7.12768 11.8588 7.14572 11.8311 7.16322C11.8033 7.18074 11.7753 7.19773 11.7469 7.21418C11.7185 7.23062 11.6899 7.24652 11.6609 7.26187C11.6319 7.27723 11.6026 7.29202 11.5731 7.30625C11.5435 7.3205 11.5137 7.33416 11.4837 7.34725C11.4536 7.36035 11.4233 7.37287 11.3927 7.38481C11.3622 7.39677 11.3314 7.40813 11.3005 7.4189C11.2695 7.42967 11.2383 7.43984 11.2069 7.4494C11.1756 7.45899 11.144 7.46797 11.1123 7.47634C11.0806 7.48474 11.0488 7.49251 11.0167 7.49965C10.9847 7.50682 10.9526 7.51337 10.9204 7.51931C10.8211 7.537 10.6298 7.53672 10.5468 7.56772C10.5145 7.57975 10.4832 7.60237 10.4553 7.62234C10.2537 7.76678 10.0906 7.9565 9.90953 8.12412C9.70625 8.3124 9.48847 8.48968 9.27715 8.66897L7.12234 10.5147C6.69122 10.8852 6.25578 11.2495 5.83112 11.6274C5.7195 11.7268 5.56812 11.8865 5.40753 11.8733C5.16025 11.8531 4.85062 11.4542 4.69772 11.2698C4.57943 11.3607 4.42637 11.527 4.31334 11.6363C4.216 11.7304 4.12043 11.8272 4.02072 11.9188C3.95137 11.9824 3.87812 12.0423 3.81034 12.1076C3.67809 12.235 3.56394 12.3817 3.56403 12.5735C3.56409 12.6752 3.6045 12.7641 3.67718 12.8346C3.77215 12.9268 3.89125 12.958 4.01943 12.9722C4.18693 12.9909 4.36025 12.9796 4.52853 12.9764C4.82978 12.9707 5.13059 12.9604 5.4319 12.9584L8.59778 12.9442C8.83928 12.9438 9.86722 12.9192 9.99778 12.9739C10.0007 12.9791 10.0031 12.9824 10.0038 12.9889C10.0064 13.0129 10.0014 13.0413 10.0008 13.0658C9.99797 13.1933 9.99115 13.2888 9.90228 13.3914C9.744 13.5742 9.4779 13.5993 9.25131 13.615C8.98343 13.6335 8.71553 13.6251 8.44737 13.6292L6.49187 13.6486C5.88462 13.6573 5.28012 13.6978 4.67209 13.6843C4.45581 13.6795 4.2375 13.6781 4.02328 13.6451C3.7515 13.6034 3.49006 13.5126 3.28097 13.3288C3.06445 13.1384 2.94037 12.8882 2.92214 12.6008C2.92077 12.5773 2.92021 12.5537 2.92047 12.5302C2.92074 12.5066 2.92181 12.483 2.92371 12.4595C2.9256 12.436 2.92831 12.4126 2.93183 12.3893C2.93535 12.366 2.93967 12.3428 2.94479 12.3198C2.94992 12.2968 2.95584 12.274 2.96254 12.2514C2.96925 12.2288 2.97673 12.2065 2.98499 12.1844C2.99325 12.1623 3.00226 12.1405 3.01203 12.1191C3.02179 12.0976 3.03229 12.0765 3.04352 12.0558C3.18412 11.7948 3.70753 11.3097 3.94381 11.0918C4.03356 11.009 4.13481 10.928 4.21428 10.8355L4.2214 10.8272C4.0754 10.6769 3.66025 10.3367 3.62803 10.144C3.61718 10.0789 3.64331 10.0171 3.67831 9.96347C3.75487 9.84597 3.86425 9.74934 3.95272 9.641C4.13925 9.41256 4.31878 9.17743 4.50222 8.94637L6.67253 6.261L7.33768 5.42825C7.45293 5.28518 7.57928 5.15134 7.68612 5.00165ZM9.06509 3.22356C8.88565 3.3909 8.68225 3.60106 8.59022 3.83131C8.79287 4.03825 9.00534 4.23615 9.21081 4.44046L10.6504 5.8814C10.8044 6.03692 10.9594 6.19141 11.1155 6.34487C11.2179 6.44522 11.3343 6.545 11.4212 6.65925L11.5013 6.60781C11.7003 6.47884 11.8432 6.31893 12.0005 6.14643C11.7279 5.8829 11.4636 5.61003 11.196 5.34146L9.69493 3.83325C9.53847 3.67568 9.39203 3.50734 9.2334 3.35228C9.203 3.32259 9.11425 3.22534 9.07162 3.22309C9.06943 3.223 9.06728 3.2234 9.06509 3.22356ZM8.34809 4.49334C8.27347 5.09315 8.42422 5.67612 8.796 6.15578C9.10228 6.5509 9.58337 6.8519 10.0825 6.91315C10.188 6.92582 10.294 6.93216 10.4004 6.93218C10.5067 6.93223 10.6127 6.92594 10.7183 6.91334L10.7418 6.90543C10.7488 6.88918 10.7492 6.88843 10.7427 6.87256C10.7207 6.81815 10.656 6.76072 10.6154 6.71897C10.4932 6.59331 10.3635 6.47575 10.2391 6.35243L9.3769 5.49071L8.7639 4.8775C8.65206 4.76503 8.54312 4.64703 8.42656 4.53956C8.40581 4.52043 8.38378 4.5044 8.35662 4.49543C8.35384 4.49453 8.35093 4.49406 8.34809 4.49334ZM7.87809 5.79578C7.77203 5.87572 7.68612 6.01006 7.60222 6.11397L7.14428 6.68521L6.02993 8.07662L5.03487 9.31612C4.82406 9.5735 4.55968 9.84093 4.39456 10.128C4.66381 10.3826 4.9325 10.635 5.18743 10.9043C5.26506 10.9863 5.35143 11.0686 5.42118 11.1572C5.5544 11.0301 5.70497 10.9221 5.83668 10.7941L8.31068 8.66068L9.12465 7.96706C9.30503 7.81528 9.50772 7.66672 9.66709 7.49306C9.48687 7.42293 9.30734 7.35503 9.13834 7.25984C8.72697 7.02821 8.22559 6.55393 8.03281 6.11768C8.00928 6.06443 7.92497 5.83112 7.89812 5.80409C7.89803 5.804 7.88131 5.79665 7.88053 5.79634C7.87975 5.79603 7.8789 5.79596 7.87809 5.79578Z" fill="white"/>
<path d="M7.79588 8.11594C7.78759 8.11641 7.77622 8.11416 7.76788 8.11323C7.68644 8.05891 7.36319 7.73907 7.33594 7.65635C7.37625 7.59954 7.43631 7.55223 7.48497 7.50213C7.56444 7.42032 7.63678 7.32223 7.72909 7.25488C7.84869 7.26438 8.11456 7.60898 8.19997 7.70357C8.19853 7.70551 8.19716 7.70745 8.19572 7.70938L8.18847 7.71891C8.08769 7.85388 7.91713 7.99051 7.79588 8.11594Z" fill="white"/>
</svg>
