<svg width="56" height="56" viewBox="0 0 56 56" fill="none" xmlns="http://www.w3.org/2000/svg">
<g clip-path="url(#clip0_320_14306)">
<rect width="56" height="56" rx="12" fill="white"/>
<path d="M38.3717 20.0433V33.2267C38.3717 35.5367 36.4934 37.415 34.1834 37.415C31.8851 37.415 29.9951 35.5367 29.9951 33.2267C29.9951 30.9283 31.8851 29.05 34.1834 29.05C35.1634 29.05 36.0384 29.3883 36.7501 29.9483V23.0067L26.0051 26.0633V35.4783C26.0051 37.7883 24.1151 39.6667 21.8168 39.6667C19.5068 39.6667 17.6284 37.7883 17.6284 35.4783C17.6284 33.18 19.5068 31.3017 21.8168 31.3017C22.7851 31.3017 23.6601 31.64 24.3718 32.1883V21.875C24.3718 20.16 25.4101 18.83 27.0551 18.3867L33.7984 16.5433C35.1634 16.17 36.3184 16.2983 37.1351 16.9283C37.9634 17.5467 38.3717 18.5967 38.3717 20.0433Z" fill="#1A1A1A"/>
</g>
<rect x="0.5" y="0.5" width="55" height="55" rx="11.5" stroke="#FAFAFA" stroke-dasharray="24 24"/>
<defs>
<clipPath id="clip0_320_14306">
<rect width="56" height="56" rx="12" fill="white"/>
</clipPath>
</defs>
</svg>
