<svg width="16" height="16" viewBox="0 0 16 16" fill="none" xmlns="http://www.w3.org/2000/svg">
<path d="M13.0993 12.7573L3.09688 12.7571C2.97593 12.7576 2.84782 12.767 2.72759 12.7552C2.13653 12.6973 2.21128 12.0467 2.21179 11.6392L2.21153 4.01967C2.21143 3.46785 2.23587 2.97983 2.92088 2.93968L12.7909 2.93945C13.3355 2.93957 13.7848 2.99144 13.7919 3.65957C13.7986 4.29107 13.7917 4.92335 13.7917 5.55495L13.792 11.8629C13.7919 12.3824 13.7178 12.7514 13.0993 12.7573ZM2.92088 3.6327C2.91024 3.93763 2.92088 4.24613 2.9209 4.55154L2.92088 12.0601C3.35051 12.06 3.78426 12.0474 4.21339 12.0601V10.256C3.73245 10.2159 3.86814 9.66123 3.86829 9.29904L3.86795 7.02032C3.86708 6.18879 3.90717 6.27151 4.62011 6.27067L11.4372 6.27048C12.0117 6.2706 12.1491 6.26204 12.1438 6.85645L12.1428 7.24551L12.1429 9.67157C12.1428 9.94979 12.1787 10.2496 11.7965 10.256L11.7964 11.4703C11.7963 11.6654 11.7855 11.8657 11.7965 12.0601H13.0993V3.6327H2.92088ZM5.18458 6.95107L5.18504 9.66413C5.18548 9.90495 5.23348 10.18 4.92795 10.2499L4.90161 10.256V12.0601H6.23826H6.54001V6.95107H5.18458ZM7.22945 6.95107V12.0601H8.78857C8.79676 11.4999 8.78836 10.938 8.78839 10.3776L8.78857 6.95107L7.75583 6.95073C7.58145 6.95067 7.40351 6.94338 7.22945 6.95107ZM9.46767 6.95107C9.45979 7.51926 9.46764 8.08879 9.46764 8.6571L9.46767 12.0601L10.8713 12.0588C10.9061 12.0585 11.0904 12.0711 11.1052 12.0628L11.1067 12.0601L11.1065 10.8527C11.1064 10.6549 11.0983 10.4534 11.1067 10.256C10.7741 10.2104 10.8187 9.8797 10.8194 9.63654L10.8196 6.95107H9.46767Z" fill="white"/>
<path d="M11.1347 4.2117H12.3265C12.3822 4.20039 12.3454 4.53848 12.3454 4.60455L12.3458 5.58892H11.1623C11.102 5.59017 11.135 5.20577 11.135 5.13217L11.1347 4.2117Z" fill="white"/>
<path d="M9.11802 5.58913C9.11183 5.13038 9.11786 4.67076 9.11802 4.21191H10.2735L10.2736 5.1791C10.2737 5.30266 10.2887 5.47132 10.2735 5.58913H9.11802Z" fill="white"/>
</svg>
