<svg width="18" height="18" viewBox="0 0 18 18" fill="none" xmlns="http://www.w3.org/2000/svg">
<path fill-rule="evenodd" clip-rule="evenodd" d="M9.00033 17.3366C13.6027 17.3366 17.3337 13.6056 17.3337 9.00326C17.3337 4.40088 13.6027 0.669922 9.00033 0.669922C4.39795 0.669922 0.666992 4.40088 0.666992 9.00326C0.666992 13.6056 4.39795 17.3366 9.00033 17.3366ZM9.62533 5.66992C9.62533 5.32474 9.3455 5.04492 9.00033 5.04492C8.65515 5.04492 8.37533 5.32474 8.37533 5.66992V11.4501C8.36348 11.4409 8.3514 11.4313 8.33907 11.4214C8.07021 11.2055 7.7506 10.8844 7.27577 10.4053L6.1109 9.22996C5.86792 8.98479 5.47219 8.98303 5.22703 9.22601C4.98186 9.469 4.9801 9.86472 5.22308 10.1099L6.41337 11.3108C6.85619 11.7577 7.22551 12.1303 7.55636 12.396C7.90338 12.6747 8.26808 12.8867 8.71241 12.9433C8.80799 12.9555 8.90416 12.9616 9.00033 12.9616C9.09649 12.9616 9.19265 12.9555 9.28824 12.9433C9.73257 12.8867 10.0973 12.6747 10.4443 12.396C10.7751 12.1303 11.1445 11.7577 11.5873 11.3108L12.7776 10.1099C13.0206 9.86472 13.0188 9.469 12.7736 9.22601C12.5285 8.98303 12.1327 8.98479 11.8898 9.22996L10.7249 10.4053C10.2501 10.8844 9.93044 11.2055 9.66158 11.4214C9.64926 11.4313 9.63717 11.4409 9.62533 11.4501V5.66992Z" fill="white" fill-opacity="0.7"/>
</svg>
