<svg width="24" height="24" viewBox="0 0 24 24" fill="none" xmlns="http://www.w3.org/2000/svg">
<path d="M9.99607 7.70312C10.1015 7.70312 10.1618 7.62779 10.1844 7.52986C10.433 6.2793 10.4179 6.24916 11.7212 5.99302C11.8342 5.97042 11.902 5.91016 11.902 5.80469C11.902 5.69922 11.8342 5.63895 11.7288 5.61635C10.4104 5.34515 10.4179 5.31501 10.1844 4.07199C10.1693 3.97405 10.1015 3.90625 9.99607 3.90625C9.8906 3.90625 9.83033 3.97405 9.81526 4.07199C9.55913 5.33008 9.58173 5.37528 8.2709 5.61635C8.16543 5.63142 8.09763 5.69922 8.09763 5.80469C8.09763 5.90262 8.16543 5.97042 8.2709 5.99302C9.58173 6.2567 9.57419 6.28683 9.81526 7.52986C9.83033 7.62779 9.8906 7.70312 9.99607 7.70312ZM16.4523 10.385C16.5728 10.385 16.6481 10.2946 16.6707 10.1816C16.9419 8.72015 16.9269 8.64481 18.4637 8.38114C18.5918 8.35854 18.6746 8.2832 18.6746 8.16267C18.6746 8.04213 18.5918 7.9668 18.4712 7.9442C16.9269 7.66546 16.9043 7.59766 16.6707 6.14369C16.6481 6.02316 16.5728 5.94029 16.4523 5.94029C16.3317 5.94029 16.2489 6.02316 16.2338 6.14369C15.9701 7.61272 15.9777 7.70312 14.4258 7.9442C14.3128 7.95926 14.2224 8.04213 14.2224 8.16267C14.2299 8.2832 14.3052 8.35854 14.4258 8.38114C15.9777 8.65234 15.9927 8.72768 16.2338 10.1816C16.2489 10.2946 16.3317 10.385 16.4523 10.385ZM5.84512 12.6451C5.96565 12.6451 6.04852 12.5622 6.06359 12.4417C6.30466 10.9802 6.32726 10.9049 7.86409 10.6412C7.98463 10.6186 8.0675 10.5432 8.0675 10.4227C8.0675 10.3022 7.98463 10.2268 7.87163 10.2042C6.31973 9.9255 6.31973 9.8577 6.06359 8.40374C6.04099 8.2832 5.96565 8.20034 5.84512 8.20034C5.72458 8.20034 5.64925 8.2832 5.62665 8.40374C5.38558 9.87277 5.37051 9.9481 3.82615 10.2042C3.70561 10.2268 3.62274 10.3022 3.62274 10.4227C3.62274 10.5432 3.70561 10.6186 3.81861 10.6412C5.37051 10.9124 5.37051 10.9953 5.62665 12.4492C5.64925 12.5622 5.72458 12.6451 5.84512 12.6451ZM18.7424 19.1088C19.1116 19.4855 19.7444 19.478 20.106 19.1088C20.4751 18.7246 20.4676 18.1219 20.106 17.7453L12.9492 10.5508C12.5801 10.1816 11.9472 10.1816 11.5856 10.5508C11.2165 10.935 11.224 11.5452 11.5856 11.9143L18.7424 19.1088ZM9.47626 19.2972C9.63446 19.2972 9.74746 19.1917 9.77006 19.0184C10.0111 16.9844 10.1091 16.9241 12.1808 16.6002C12.3691 16.57 12.4821 16.4721 12.4821 16.3064C12.4821 16.1482 12.3691 16.0427 12.2184 16.0126C10.1166 15.6057 10.0111 15.6208 9.77006 13.5943C9.74746 13.421 9.63446 13.3156 9.47626 13.3156C9.31805 13.3156 9.20505 13.421 9.18245 13.5868C8.92631 15.6509 8.85098 15.7263 6.7416 16.0126C6.59093 16.0276 6.4704 16.1482 6.4704 16.3064C6.4704 16.4646 6.5834 16.57 6.73407 16.6002C8.85851 17.007 8.91878 17.007 9.18245 19.0335C9.20505 19.1917 9.31805 19.2972 9.47626 19.2972ZM19.104 18.4986L14.8476 14.2422L15.277 13.8128L19.5335 18.0767C19.6917 18.2274 19.7369 18.4082 19.5862 18.5664C19.4431 18.702 19.2623 18.6643 19.104 18.4986Z" fill="white"/>
</svg>
