<svg width="16" height="16" viewBox="0 0 16 16" fill="none" xmlns="http://www.w3.org/2000/svg">
<path d="M6.56586 4.08102L6.57346 4.08071C6.69921 4.07605 6.82746 4.08484 6.95349 4.08543L7.7598 4.08584L10.4749 4.08593L12.3199 4.08605C12.4563 4.08693 12.5927 4.08646 12.729 4.08465C12.855 4.0819 12.9839 4.07268 13.1096 4.08265C13.205 4.09018 13.2954 4.12121 13.3656 4.18871C13.3753 4.19817 13.3845 4.2081 13.3933 4.21849C13.402 4.22889 13.4102 4.2397 13.4179 4.25093C13.4255 4.26214 13.4326 4.27371 13.4391 4.28565C13.4456 4.29756 13.4515 4.30978 13.4568 4.3223C13.462 4.33483 13.4666 4.34758 13.4706 4.36055C13.4746 4.37355 13.4779 4.38671 13.4806 4.40002C13.4833 4.41334 13.4853 4.42675 13.4866 4.44027C13.4879 4.45379 13.4885 4.46735 13.4885 4.48093C13.4888 4.57324 13.4561 4.65984 13.3897 4.72484C13.3481 4.76568 13.2831 4.80699 13.2252 4.81993C13.0676 4.85518 12.8832 4.8359 12.7216 4.83446C12.4609 4.83125 12.2001 4.82959 11.9394 4.82946C11.9328 4.98049 11.9366 5.13352 11.9365 5.28474L11.9362 6.06818L11.936 8.43934L11.937 9.23062C11.9379 9.40205 11.9486 9.58071 11.9288 9.75109C11.921 9.81862 11.8938 9.87871 11.8482 9.92924C11.8398 9.9387 11.8308 9.9477 11.8215 9.95624C11.8122 9.9648 11.8024 9.97287 11.7922 9.98043C11.7821 9.98801 11.7716 9.99506 11.7607 10.0016C11.7498 10.0081 11.7386 10.0141 11.7272 10.0195C11.7157 10.0249 11.704 10.0297 11.6921 10.0339C11.6801 10.0381 11.668 10.0417 11.6556 10.0447C11.6433 10.0477 11.6309 10.0501 11.6184 10.0519C11.6058 10.0536 11.5932 10.0548 11.5805 10.0553C11.4759 10.0596 11.3757 10.0178 11.3018 9.94418C11.2359 9.87855 11.2029 9.79352 11.1883 9.7033C11.1538 9.49002 11.1888 9.26571 11.1905 9.0508L11.1913 7.76215C11.1916 6.78524 11.2001 5.80746 11.1877 4.83065C10.7952 4.82412 10.4018 4.82865 10.0092 4.82859L8.36605 4.82965L8.36552 7.49855L8.3663 8.29218C8.36733 8.44427 8.3799 8.60377 8.36405 8.75477C8.35518 8.83906 8.34165 8.9019 8.27877 8.96446C8.20383 9.03902 8.09755 9.0754 7.99274 9.07162C7.98132 9.07131 7.96994 9.07041 7.95858 9.06893C7.94725 9.06747 7.93602 9.06545 7.9249 9.06287C7.91375 9.06028 7.90277 9.05714 7.89196 9.05343C7.88115 9.04974 7.87054 9.04552 7.86015 9.04077C7.84975 9.03602 7.83961 9.03076 7.82974 9.02499C7.81986 9.01922 7.81031 9.01297 7.80108 9.00624C7.79183 8.99951 7.78295 8.99234 7.77443 8.98471C7.76591 8.97709 7.75779 8.96906 7.75008 8.96062C7.68524 8.89021 7.6539 8.79921 7.64302 8.70596C7.62155 8.52159 7.63605 8.33159 7.63683 8.14621L7.63718 7.19527L7.63693 5.63046C7.63674 5.36677 7.62546 5.09949 7.63699 4.83637C7.5338 4.82418 7.42636 4.8289 7.32261 4.82887C7.16822 4.82828 7.01382 4.82917 6.85943 4.83152C6.74393 4.83349 6.62358 4.84062 6.5093 4.82174C6.44665 4.8114 6.38755 4.79155 6.33502 4.75487C6.26046 4.70277 6.21005 4.60965 6.19774 4.5198C6.18327 4.41427 6.21565 4.30796 6.28127 4.22509C6.35518 4.13177 6.45108 4.09362 6.56586 4.08102Z" fill="white"/>
<path d="M2.828 6.346C2.846 6.34504 2.86401 6.34462 2.88203 6.34475C2.96222 6.34587 3.03995 6.37919 3.10166 6.42922C3.24082 6.54206 3.36514 6.68931 3.49179 6.81675C3.74181 7.06796 3.99375 7.31723 4.24761 7.56456C4.92758 8.22269 5.601 8.88746 6.26786 9.55887C6.67995 9.96944 7.09817 10.3738 7.50223 10.7923C7.5194 10.7778 7.53687 10.7637 7.55464 10.75C7.57241 10.7362 7.59047 10.7229 7.60882 10.7099C7.62716 10.6969 7.64577 10.6844 7.66467 10.6722C7.68354 10.66 7.70268 10.6483 7.72207 10.6369C7.74147 10.6255 7.76109 10.6146 7.78095 10.6041C7.8008 10.5936 7.82088 10.5835 7.84117 10.5739C7.86144 10.5642 7.88192 10.555 7.90261 10.5462C7.92329 10.5374 7.94416 10.5291 7.9652 10.5212C7.98624 10.5133 8.00744 10.5059 8.02879 10.4989C8.05015 10.492 8.07165 10.4855 8.09329 10.4794C8.11492 10.4733 8.13667 10.4678 8.15854 10.4627C8.18042 10.4575 8.2024 10.4529 8.22448 10.4487C8.24654 10.4445 8.2687 10.4408 8.29095 10.4376C8.31318 10.4343 8.33547 10.4316 8.35782 10.4293C8.38018 10.427 8.40256 10.4252 8.42498 10.4239C8.44742 10.4226 8.46987 10.4218 8.49232 10.4214C8.5182 10.4213 8.54407 10.4219 8.56995 10.4231C8.5958 10.4242 8.62162 10.4261 8.64739 10.4285C8.67314 10.4309 8.69882 10.434 8.72445 10.4377C8.75007 10.4414 8.77558 10.4457 8.80098 10.4507C8.8264 10.4556 8.85167 10.4612 8.87679 10.4674C8.90194 10.4736 8.92691 10.4804 8.9517 10.4877C8.97651 10.4951 9.00113 10.5031 9.02554 10.5117C9.04994 10.5204 9.07412 10.5296 9.09807 10.5393C9.12205 10.5491 9.14577 10.5595 9.16923 10.5704C9.19267 10.5814 9.21583 10.5929 9.23873 10.605C9.26163 10.6171 9.28421 10.6297 9.30648 10.6429C9.32877 10.656 9.35072 10.6698 9.37232 10.684C9.39393 10.6983 9.41517 10.7131 9.43604 10.7283C9.45694 10.7436 9.47744 10.7594 9.49754 10.7757C9.51765 10.792 9.53734 10.8088 9.55664 10.826C9.57595 10.8433 9.59481 10.861 9.61323 10.8792C9.63096 10.8969 9.64823 10.915 9.66504 10.9336C9.68186 10.9522 9.6982 10.9712 9.71407 10.9906C9.72995 11.0099 9.74533 11.0297 9.76023 11.0498C9.7751 11.07 9.78948 11.0905 9.80336 11.1114C9.81723 11.1322 9.83057 11.1534 9.84339 11.175C9.85618 11.1965 9.86844 11.2184 9.88017 11.2405C9.8919 11.2626 9.90306 11.2851 9.91367 11.3077C9.92427 11.3305 9.9343 11.3534 9.94376 11.3766C9.95324 11.3998 9.96213 11.4232 9.97042 11.4469C9.97871 11.4705 9.98641 11.4944 9.99351 11.5184C10.0006 11.5424 10.0071 11.5666 10.013 11.5909C10.0189 11.6153 10.0242 11.6398 10.0289 11.6644C10.0336 11.689 10.0377 11.7137 10.0411 11.7385C10.0446 11.7633 10.0474 11.7882 10.0496 11.8132C10.0518 11.8381 10.0534 11.8631 10.0544 11.8882C10.0554 11.9132 10.0557 11.9382 10.0554 11.9633C10.0539 12.3836 9.87039 12.7752 9.57523 13.0701C9.45292 13.1844 9.31567 13.2737 9.16357 13.3434C9.13997 13.3543 9.11612 13.3646 9.09201 13.3744C9.06791 13.3842 9.04357 13.3933 9.01901 13.4018C8.99445 13.4104 8.96969 13.4184 8.94473 13.4257C8.91979 13.433 8.89468 13.4397 8.86939 13.4458C8.84412 13.4519 8.8187 13.4574 8.79314 13.4623C8.76759 13.4671 8.74194 13.4714 8.71617 13.4749C8.69042 13.4785 8.66459 13.4815 8.6387 13.4838C8.61278 13.4861 8.58683 13.4878 8.56085 13.4889C8.53488 13.4899 8.50888 13.4903 8.48285 13.4901C8.45685 13.4899 8.43088 13.489 8.40492 13.4875C8.37896 13.486 8.35304 13.4838 8.32717 13.481C8.30131 13.4783 8.27554 13.4748 8.24986 13.4708C8.22417 13.4667 8.19859 13.4621 8.17314 13.4567C8.14768 13.4514 8.12236 13.4455 8.0972 13.4389C8.07203 13.4324 8.04704 13.4252 8.02223 13.4174C7.9974 13.4097 7.97278 13.4013 7.94839 13.3923C7.92487 13.3834 7.90157 13.3739 7.87851 13.3638C7.85547 13.3537 7.83268 13.3431 7.81014 13.3319C7.78762 13.3207 7.76538 13.3089 7.74342 13.2967C7.72148 13.2844 7.69986 13.2715 7.67854 13.2582C7.65723 13.2448 7.63626 13.2309 7.61564 13.2165C7.59501 13.2021 7.57475 13.1872 7.55485 13.1718C7.53496 13.1564 7.51547 13.1405 7.49639 13.1241C7.47728 13.1077 7.45859 13.0909 7.44032 13.0736C7.42205 13.0563 7.40422 13.0386 7.38682 13.0204C7.36943 13.0022 7.3525 12.9836 7.33604 12.9646C7.31956 12.9456 7.30356 12.9262 7.28804 12.9063C7.27254 12.8865 7.25753 12.8664 7.24301 12.8458C7.22851 12.8253 7.21452 12.8044 7.20104 12.7831C7.18756 12.7619 7.17462 12.7403 7.1622 12.7184C7.14978 12.6965 7.13792 12.6744 7.12661 12.6519C7.11529 12.6294 7.10454 12.6067 7.09436 12.5837C6.92892 12.2187 6.93636 11.7728 7.07839 11.4005C7.01623 11.3444 6.95951 11.2789 6.90089 11.219C6.8022 11.1192 6.70301 11.02 6.60332 10.9213L5.47351 9.79669L3.4587 7.795C3.21214 7.55072 2.95753 7.31531 2.71366 7.06809C2.66119 7.0149 2.55372 6.92347 2.53407 6.85328C2.52706 6.82822 2.51913 6.8029 2.51465 6.77722C2.51254 6.76499 2.51105 6.75269 2.51018 6.74031C2.50931 6.72794 2.50907 6.71555 2.50945 6.70315C2.50983 6.69076 2.51084 6.6784 2.51246 6.66609C2.51409 6.6538 2.51633 6.64162 2.51919 6.62956C2.52205 6.61748 2.52551 6.60557 2.52956 6.59384C2.53362 6.58211 2.53826 6.57062 2.54347 6.55937C2.54869 6.54812 2.55446 6.53716 2.56078 6.5265C2.56711 6.51581 2.57395 6.50548 2.58131 6.4955C2.64134 6.41312 2.72862 6.36315 2.828 6.346ZM8.58786 12.758C8.81104 12.7249 9.01126 12.645 9.14886 12.4582C9.28192 12.2776 9.32157 12.0506 9.28732 11.8316C9.25601 11.6313 9.14148 11.4267 8.97645 11.3064C8.82886 11.1988 8.62467 11.1475 8.44329 11.1751C8.22154 11.2014 8.01767 11.2921 7.8771 11.4706C7.74467 11.6388 7.68685 11.8647 7.71257 12.0762C7.71416 12.0886 7.71603 12.101 7.7182 12.1134C7.72039 12.1257 7.72287 12.138 7.72564 12.1503C7.72843 12.1625 7.73151 12.1747 7.73489 12.1868C7.73826 12.1989 7.74194 12.2109 7.74592 12.2228C7.74988 12.2347 7.75413 12.2465 7.75867 12.2582C7.76321 12.2699 7.76803 12.2815 7.77314 12.2929C7.77824 12.3044 7.78363 12.3157 7.78929 12.3269C7.79496 12.3381 7.80089 12.3492 7.80707 12.3601C7.81328 12.371 7.81975 12.3818 7.82648 12.3924C7.83321 12.403 7.84019 12.4134 7.84742 12.4237C7.85467 12.4339 7.86216 12.444 7.86989 12.4539C7.87762 12.4637 7.88558 12.4734 7.89379 12.4829C7.902 12.4924 7.91043 12.5017 7.91907 12.5108C7.92774 12.5199 7.93662 12.5288 7.9457 12.5374C7.9548 12.5461 7.96411 12.5545 7.97361 12.5627C7.98311 12.5709 7.9928 12.5789 8.0027 12.5866C8.17101 12.7173 8.37839 12.7614 8.58786 12.758Z" fill="white"/>
<path d="M6.56739 2.65179C6.56989 2.65128 6.57236 2.65056 6.57489 2.65027C6.66461 2.6399 6.76298 2.65385 6.85326 2.65652C6.96526 2.65983 7.07792 2.65651 7.18998 2.65649L8.81586 2.65667L11.7098 2.65675L12.5888 2.65635C12.7383 2.65558 12.8867 2.64803 13.0364 2.6531C13.1345 2.65642 13.2424 2.65516 13.3262 2.71344C13.4081 2.77047 13.47 2.86597 13.4873 2.96445C13.5006 3.04091 13.4903 3.12087 13.4445 3.18488C13.3599 3.303 13.2585 3.34238 13.119 3.36419C13.0485 3.37563 12.9638 3.3681 12.8922 3.36772L12.4851 3.36653L10.8953 3.36647L7.95445 3.36656C7.70017 3.3666 7.44548 3.36385 7.19123 3.36741C7.01214 3.36991 6.83264 3.38163 6.65355 3.37297C6.55092 3.368 6.42326 3.34869 6.33767 3.28785C6.32848 3.28139 6.31964 3.27448 6.31114 3.26713C6.30264 3.25977 6.29453 3.25201 6.2868 3.24385C6.27909 3.2357 6.27181 3.22717 6.26495 3.21825C6.25808 3.20936 6.25168 3.20014 6.24576 3.1906C6.23983 3.18105 6.23439 3.17124 6.22945 3.16116C6.22449 3.15108 6.22007 3.14076 6.21617 3.13022C6.21225 3.11968 6.20889 3.10898 6.20608 3.09811C6.20324 3.08723 6.20096 3.07624 6.19923 3.06514C6.1842 2.97013 6.20783 2.86644 6.26667 2.78985C6.34511 2.68775 6.44708 2.66619 6.56739 2.65179Z" fill="white"/>
</svg>
