<svg width="16" height="16" viewBox="0 0 16 16" fill="none" xmlns="http://www.w3.org/2000/svg">
<path d="M7.77849 7.54096L10.7978 4.49521C11.0821 4.2064 11.3947 3.99455 11.1535 3.54137C11.0691 3.38293 10.9376 3.21715 11.0681 3.04093C11.212 2.84652 11.8426 2.56149 12.0733 2.45832C12.4049 2.30997 12.2648 2.40131 12.4666 2.14987C12.6239 1.9539 12.836 1.83442 13.0856 1.80763C13.763 1.73561 14.2545 2.47237 13.9381 3.0765C13.8226 3.29696 13.6423 3.34649 13.5482 3.49052C13.4919 3.57677 13.4475 3.70718 13.4001 3.80343C13.313 3.97996 12.9735 4.60008 12.8281 4.73677C12.5212 5.02549 12.2041 4.32386 11.7366 4.66577C11.4058 4.9078 10.7674 5.62274 10.4442 5.94824L8.76121 7.65315C8.60862 7.80477 8.46309 7.96249 8.30655 8.11024C8.69371 8.46833 9.21546 8.71983 9.69187 8.34521C9.80921 8.25293 9.92624 8.12637 10.0777 8.09505C10.2817 8.0529 10.4776 8.21486 10.5069 8.4143C10.5343 8.60124 10.3833 8.80812 10.2958 8.9644C9.96421 9.55658 9.49462 10.0987 8.89043 10.423C7.83627 10.9887 7.96221 10.7845 7.66915 11.9224C7.43021 12.8501 6.7514 13.7862 5.73315 13.902C4.95021 13.991 4.17637 13.5652 3.58346 13.0917C1.68627 11.5939 1.10594 9.03124 3.85237 8.1964C4.20515 8.08915 4.60509 8.02421 4.90621 7.79996C5.25218 7.54233 5.32243 7.20783 5.52312 6.86046C5.81396 6.35693 6.30796 5.86543 6.81009 5.57021C7.00874 5.45343 7.4314 5.21218 7.65877 5.27736C7.82321 5.32446 7.92999 5.49205 7.91234 5.66005C7.8748 6.01746 7.31293 5.9029 7.36055 6.66286C7.38837 7.10677 7.58955 7.18471 7.77849 7.54096ZM13.1449 2.5485C12.9863 2.58326 12.9432 2.79327 12.8339 2.89543C12.6941 3.02601 12.0876 3.2653 11.8755 3.39068C11.9344 3.54627 11.9795 3.69068 12.0042 3.85615H12.0898C12.2193 3.86418 12.3327 3.87877 12.4557 3.92274C12.5691 3.71065 12.8855 3.05708 12.9821 2.96134C13.0625 2.88176 13.1677 2.84851 13.2462 2.7774C13.3484 2.6849 13.2609 2.55524 13.1449 2.5485ZM6.61577 6.6629C6.28018 6.9878 6.16555 7.25937 5.97474 7.65824C5.34999 8.96408 4.16755 8.65568 3.25309 9.3248C1.71965 10.4468 4.04109 13.1141 5.4844 13.134C6.21652 13.1441 6.73268 12.4619 6.90321 11.8147C7.09171 11.0994 7.08634 10.6819 7.77849 10.1641C8.24949 9.81961 8.6789 9.81365 9.11909 9.29771C8.58152 9.24327 8.17065 9.02902 7.77849 8.64746C7.66218 8.74886 7.5549 8.86265 7.44609 8.97208L6.27046 10.1476C6.19177 10.2256 6.1054 10.2976 6.03105 10.3796C6.13165 10.4976 6.24643 10.621 6.23618 10.7882C6.22349 10.9959 6.02505 11.1824 5.81337 11.1624C5.56637 11.1391 5.35643 10.8056 5.19512 10.6392C5.06099 10.5009 4.90946 10.3707 4.78987 10.2197C4.48324 9.83252 5.10021 9.33974 5.46615 9.85608C5.6143 9.68455 5.78718 9.53852 5.94477 9.37621C6.37855 8.92949 6.8173 8.48383 7.26168 8.04762C6.9858 7.75352 6.76302 7.44133 6.67852 7.04218C6.66968 7.00049 6.62034 6.66812 6.61577 6.6629Z" fill="white"/>
<path d="M4.95527 12.0847C4.61002 12.1128 4.44658 11.7865 4.22245 11.5551C4.01392 11.3399 3.60808 11.0672 3.82917 10.7264C3.89073 10.6314 3.98683 10.5855 4.09417 10.5638C4.40108 10.5314 4.59102 10.8478 4.77902 11.0413C4.91027 11.1764 5.05958 11.3094 5.17489 11.4582C5.37095 11.7112 5.25617 12.01 4.95527 12.0847Z" fill="white"/>
</svg>
