<svg width="24" height="24" viewBox="0 0 24 24" fill="none" xmlns="http://www.w3.org/2000/svg">
<path d="M17.5499 7.26883C17.4667 7.26039 17.3832 7.26039 17.3 7.26883C16.0377 7.20924 15.04 6.16893 15.04 4.89C15.04 3.57502 16.1072 2.5 17.43 2.5C18.7444 2.5 19.8191 3.56642 19.82 4.88843C19.8109 6.16964 18.8112 7.20927 17.5499 7.26883Z" fill="white" stroke="white"/>
<path d="M20.79 14.7004C19.67 15.4504 18.1 15.7304 16.65 15.5404C17.03 14.7204 17.23 13.8104 17.24 12.8504C17.24 11.8504 17.02 10.9004 16.6 10.0704C18.08 9.8704 19.65 10.1504 20.78 10.9004C22.36 11.9404 22.36 13.6504 20.79 14.7004Z" fill="white"/>
<path d="M6.43997 7.77C6.50997 7.76 6.57997 7.76 6.64997 7.77C8.19997 7.72 9.42997 6.45 9.42997 4.89C9.42997 3.29 8.13997 2 6.53997 2C4.94997 2 3.65997 3.29 3.65997 4.89C3.65997 6.45 4.88997 7.72 6.43997 7.77Z" fill="white"/>
<path d="M6.55 12.8506C6.55 13.8206 6.75999 14.7406 7.14 15.5706C5.73 15.7206 4.26 15.4206 3.18 14.7106C1.6 13.6606 1.6 11.9506 3.18 10.9006C4.25 10.1806 5.75999 9.89059 7.18 10.0506C6.77 10.8906 6.55 11.8406 6.55 12.8506Z" fill="white"/>
<path d="M12.12 15.87C12.04 15.86 11.95 15.86 11.86 15.87C10.02 15.81 8.54999 14.3 8.54999 12.44C8.55999 10.54 10.09 9 12 9C13.9 9 15.44 10.54 15.44 12.44C15.43 14.3 13.97 15.81 12.12 15.87Z" fill="white"/>
<path d="M8.86999 17.9406C7.35999 18.9506 7.35999 20.6106 8.86999 21.6106C10.59 22.7606 13.41 22.7606 15.13 21.6106C16.64 20.6006 16.64 18.9406 15.13 17.9406C13.42 16.7906 10.6 16.7906 8.86999 17.9406Z" fill="white"/>
</svg>
