<svg width="17" height="16" viewBox="0 0 17 16" fill="none" xmlns="http://www.w3.org/2000/svg">
<path d="M11.1668 11.9999C10.1154 11.9999 9.13113 11.5883 8.40088 10.8896" stroke="white" stroke-opacity="0.7" stroke-width="2" stroke-linecap="round" stroke-linejoin="round"/>
<path d="M5.26999 5.36797C4.35934 4.50672 3.13774 4 1.8335 4" stroke="white" stroke-opacity="0.7" stroke-width="2" stroke-linecap="round" stroke-linejoin="round"/>
<path d="M15.1435 12.9788C15.7702 12.5871 15.7702 11.6744 15.1435 11.2828L12.697 9.75367C12.0309 9.33739 11.167 9.81623 11.167 10.6017V13.6598C11.167 14.4453 12.0309 14.9241 12.697 14.5078L15.1435 12.9788Z" fill="white" fill-opacity="0.7"/>
<path d="M11.1668 4V4C9.55203 4 8.0956 4.97095 7.47452 6.46154L6.44888 8.92308C5.67253 10.7863 3.852 12 1.8335 12V12" stroke="white" stroke-opacity="0.7" stroke-width="2" stroke-linecap="round" stroke-linejoin="round"/>
<path d="M14.4765 4.97875C15.1032 4.58708 15.1032 3.67442 14.4765 3.28276L12.03 1.75367C11.364 1.33739 10.5 1.81623 10.5 2.60167V5.65984C10.5 6.44528 11.364 6.92412 12.03 6.50784L14.4765 4.97875Z" fill="white" fill-opacity="0.7"/>
</svg>
