<svg width="110" height="32" viewBox="0 0 110 32" fill="none" xmlns="http://www.w3.org/2000/svg">
<rect width="110" height="32" rx="12" fill="url(#paint0_linear_288_3117)"/>
<path d="M17.8709 21.6831C14.7874 21.6831 12.8685 19.5884 12.8685 16.1753V16.168C12.8685 12.8135 14.7874 10.748 17.8343 10.748C20.3392 10.748 21.9651 12.1982 22.368 14.1465L22.3973 14.2637H20.4783L20.4563 14.1831C20.0535 13.0479 19.138 12.3887 17.8416 12.3887C15.9373 12.3887 14.7947 13.7803 14.7947 16.1533V16.1606C14.7947 18.585 15.9886 20.0425 17.8929 20.0425C19.4896 20.0425 20.5882 19.061 20.6248 17.5815L20.6321 17.4204H18.0101V15.9482H22.4778V17.0908C22.4778 19.9619 20.764 21.6831 17.8709 21.6831ZM24.1232 21.5V10.9312H30.9641V12.5205H26.0129V15.3696H30.6931V16.9004H26.0129V19.9106H30.9641V21.5H24.1232ZM35.2901 21.5V12.5205H32.1261V10.9312H40.3292V12.5205H37.1725V21.5H35.2901ZM44.8285 21.5V10.9312H48.9008C51.0395 10.9312 52.497 12.3447 52.497 14.4614V14.4761C52.497 16.5854 51.0395 18.0063 48.9008 18.0063H46.7182V21.5H44.8285ZM48.432 12.4766H46.7182V16.4829H48.432C49.787 16.4829 50.578 15.7505 50.578 14.4834V14.4688C50.578 13.2017 49.787 12.4766 48.432 12.4766ZM53.9813 21.5V10.9312H58.2C60.4559 10.9312 61.8328 12.1836 61.8328 14.2271V14.2417C61.8328 15.6626 61.0711 16.8125 59.8406 17.2593L62.1478 21.5H59.9944L57.9144 17.5449H55.8709V21.5H53.9813ZM55.8709 16.0508H58.0022C59.1961 16.0508 59.8992 15.3916 59.8992 14.2563V14.2417C59.8992 13.1357 59.1521 12.4619 57.9656 12.4619H55.8709V16.0508ZM68.1145 21.6831C65.0236 21.6831 63.0974 19.5811 63.0974 16.2192V16.2046C63.0974 12.8501 65.0383 10.748 68.1145 10.748C71.1979 10.748 73.1242 12.8501 73.1242 16.2046V16.2192C73.1242 19.5811 71.2053 21.6831 68.1145 21.6831ZM68.1145 20.0425C70.0261 20.0425 71.2053 18.5483 71.2053 16.2192V16.2046C71.2053 13.8608 70.0041 12.3887 68.1145 12.3887C66.2321 12.3887 65.0236 13.8535 65.0236 16.2046V16.2192C65.0236 18.5703 66.2248 20.0425 68.1145 20.0425Z" fill="white"/>
<g clip-path="url(#clip0_288_3117)">
<path d="M91.1455 24.7144C91.0404 24.7144 90.9491 24.6784 90.8716 24.6064C90.7996 24.54 90.7554 24.4487 90.7388 24.3325C90.6115 23.425 90.4731 22.6613 90.3237 22.0415C90.1799 21.4272 89.9862 20.9209 89.7427 20.5225C89.4992 20.124 89.1782 19.8058 88.7798 19.5679C88.3869 19.3299 87.8833 19.139 87.269 18.9951C86.6603 18.8457 85.9077 18.7129 85.0112 18.5967C84.8895 18.5856 84.7926 18.5413 84.7207 18.4639C84.6488 18.3864 84.6128 18.2923 84.6128 18.1816C84.6128 18.0765 84.6488 17.9852 84.7207 17.9077C84.7926 17.8302 84.8895 17.786 85.0112 17.7749C85.9077 17.6753 86.6631 17.5563 87.2773 17.418C87.8916 17.2796 88.3979 17.0887 88.7964 16.8452C89.1948 16.6017 89.5158 16.278 89.7593 15.874C90.0028 15.4701 90.1965 14.9582 90.3403 14.3384C90.4897 13.7131 90.6226 12.9438 90.7388 12.0308C90.7554 11.9201 90.7996 11.8315 90.8716 11.7651C90.9491 11.6932 91.0404 11.6572 91.1455 11.6572C91.2562 11.6572 91.3475 11.6932 91.4194 11.7651C91.4914 11.8315 91.5384 11.9201 91.5605 12.0308C91.6768 12.9438 91.8068 13.7131 91.9507 14.3384C92.1001 14.9582 92.2938 15.4701 92.5317 15.874C92.7752 16.278 93.0962 16.6017 93.4946 16.8452C93.8931 17.0887 94.3994 17.2796 95.0137 17.418C95.6279 17.5563 96.3861 17.6753 97.2881 17.7749C97.4043 17.786 97.4984 17.8302 97.5703 17.9077C97.6423 17.9852 97.6782 18.0765 97.6782 18.1816C97.6782 18.2923 97.6423 18.3864 97.5703 18.4639C97.4984 18.5413 97.4043 18.5856 97.2881 18.5967C96.3861 18.6963 95.6279 18.8153 95.0137 18.9536C94.3994 19.092 93.8931 19.2829 93.4946 19.5264C93.0962 19.7643 92.7752 20.0853 92.5317 20.4893C92.2938 20.8932 92.1001 21.4079 91.9507 22.0332C91.8068 22.6585 91.6768 23.425 91.5605 24.3325C91.5384 24.4487 91.4914 24.54 91.4194 24.6064C91.3475 24.6784 91.2562 24.7144 91.1455 24.7144ZM85.5176 15.5337C85.3516 15.5337 85.2575 15.4424 85.2354 15.2598C85.1689 14.7064 85.097 14.272 85.0195 13.9565C84.9476 13.6411 84.8286 13.4059 84.6626 13.251C84.5021 13.0905 84.2586 12.9688 83.9321 12.8857C83.6112 12.8027 83.1685 12.7142 82.604 12.6201C82.4159 12.5924 82.3218 12.4984 82.3218 12.3379C82.3218 12.1829 82.4048 12.0916 82.5708 12.064C83.1408 11.9533 83.589 11.8564 83.9155 11.7734C84.242 11.6849 84.4883 11.5632 84.6543 11.4082C84.8203 11.2533 84.9421 11.0236 85.0195 10.7192C85.097 10.4093 85.1689 9.9777 85.2354 9.42432C85.2575 9.2417 85.3516 9.15039 85.5176 9.15039C85.6836 9.15039 85.7777 9.23893 85.7998 9.41602C85.8717 9.97493 85.9437 10.4149 86.0156 10.7358C86.0931 11.0568 86.2121 11.3003 86.3726 11.4663C86.5386 11.6268 86.7848 11.7458 87.1113 11.8232C87.4378 11.9007 87.8888 11.981 88.4644 12.064C88.5363 12.0695 88.5944 12.0972 88.6387 12.147C88.6885 12.1968 88.7134 12.2604 88.7134 12.3379C88.7134 12.4928 88.6304 12.5869 88.4644 12.6201C87.8888 12.7308 87.4378 12.8304 87.1113 12.9189C86.7904 13.002 86.5469 13.1237 86.3809 13.2842C86.2204 13.4391 86.1014 13.6715 86.0239 13.9814C85.9465 14.2913 85.8717 14.723 85.7998 15.2764C85.7887 15.3483 85.7583 15.4092 85.7085 15.459C85.6587 15.5088 85.5951 15.5337 85.5176 15.5337ZM89.5352 9.82275C89.43 9.82275 89.3691 9.76742 89.3525 9.65674C89.2861 9.31917 89.228 9.05355 89.1782 8.85986C89.134 8.66618 89.062 8.51953 88.9624 8.41992C88.8683 8.31478 88.7217 8.23177 88.5225 8.1709C88.3232 8.11003 88.0438 8.04915 87.6841 7.98828C87.5734 7.96615 87.5181 7.90251 87.5181 7.79736C87.5181 7.69775 87.5734 7.63688 87.6841 7.61475C88.0438 7.54834 88.3232 7.48747 88.5225 7.43213C88.7217 7.37126 88.8683 7.29102 88.9624 7.19141C89.062 7.08626 89.134 6.93685 89.1782 6.74316C89.228 6.54948 89.2861 6.28385 89.3525 5.94629C89.3691 5.83561 89.43 5.78027 89.5352 5.78027C89.6348 5.78027 89.6956 5.83561 89.7178 5.94629C89.7786 6.28385 89.834 6.54948 89.8838 6.74316C89.9336 6.93685 90.0055 7.08626 90.0996 7.19141C90.1992 7.29102 90.3486 7.37126 90.5479 7.43213C90.7471 7.48747 91.0265 7.54834 91.3862 7.61475C91.4969 7.63688 91.5522 7.69775 91.5522 7.79736C91.5522 7.90251 91.4969 7.96615 91.3862 7.98828C91.0265 8.04915 90.7471 8.11003 90.5479 8.1709C90.3486 8.23177 90.1992 8.31478 90.0996 8.41992C90.0055 8.51953 89.9336 8.66618 89.8838 8.85986C89.834 9.05355 89.7786 9.31917 89.7178 9.65674C89.6956 9.76742 89.6348 9.82275 89.5352 9.82275Z" fill="white"/>
</g>
<defs>
<linearGradient id="paint0_linear_288_3117" x1="0" y1="16" x2="110" y2="16" gradientUnits="userSpaceOnUse">
<stop stop-color="#4C19DE"/>
<stop offset="0.5" stop-color="#4C19DE" stop-opacity="0.9"/>
<stop offset="1" stop-color="white"/>
</linearGradient>
<clipPath id="clip0_288_3117">
<rect width="32" height="32" fill="white" transform="translate(74)"/>
</clipPath>
</defs>
</svg>
