<svg width="24" height="24" viewBox="0 0 24 24" fill="none" xmlns="http://www.w3.org/2000/svg">
<path d="M17.4241 17.7012C19.7745 17.7012 21.6278 15.976 21.6278 13.8214C21.6278 12.2243 20.7162 10.8005 19.2171 10.1752C19.2246 6.76256 16.7687 4.30664 13.6121 4.30664C11.6082 4.30664 10.1015 5.34626 9.15986 6.70982C7.24636 6.19754 5.23492 7.62137 5.15958 9.74581C3.43441 10.0547 2.37219 11.6066 2.37219 13.49C2.37219 15.7877 4.3761 17.7012 7.01282 17.7012H17.4241ZM15.3072 11.9004C15.3072 13.6406 13.9135 15.0419 12.1883 15.0419C10.4707 15.0419 9.08453 13.6406 9.08453 11.9155C9.08453 11.6292 9.3256 11.3956 9.61187 11.3956C9.91321 11.3956 10.1543 11.6292 10.1543 11.9155C10.1543 13.053 11.0583 13.9721 12.1883 13.9721C13.3334 13.9721 14.2374 13.053 14.2374 11.9155C14.2374 10.8382 13.4012 9.95675 12.3465 9.92662C12.2712 9.91909 12.1883 9.91909 12.1205 9.91909L12.6705 10.4766C12.7458 10.5594 12.791 10.6724 12.791 10.793C12.791 11.0792 12.5725 11.2826 12.2938 11.2826C12.1733 11.2826 12.0377 11.2224 11.9548 11.1395L10.644 9.82115C10.4481 9.63281 10.4556 9.28627 10.6364 9.10547L11.9397 7.77204C12.0301 7.68164 12.1657 7.61384 12.3013 7.61384C12.5876 7.61384 12.791 7.83984 12.791 8.09598C12.791 8.23158 12.7383 8.35965 12.6629 8.43499L12.2561 8.85686C12.3089 8.85686 12.3767 8.84933 12.4369 8.85686C13.9587 8.9096 15.3072 10.228 15.3072 11.9004Z" fill="white"/>
</svg>
