<svg width="24" height="24" viewBox="0 0 24 24" fill="none" xmlns="http://www.w3.org/2000/svg">
<path d="M20.1371 12.0258L20.137 12.0254C19.8813 9.68134 18.624 7.57148 16.6854 6.22905C16.5827 6.1571 16.5579 6.01914 16.6302 5.91548C16.702 5.81239 16.8403 5.78742 16.9441 5.85978L16.9444 5.86C18.995 7.28696 20.3177 9.51607 20.5926 11.9814C20.6038 12.1038 20.5194 12.2092 20.4078 12.2296H20.4078H20.4076H20.4075H20.4073H20.4072H20.407H20.4069H20.4067H20.4066H20.4064H20.4063H20.4061H20.406H20.4058H20.4057H20.4055H20.4054H20.4053H20.4051H20.405H20.4048H20.4047H20.4045H20.4044H20.4042H20.4041H20.4039H20.4038H20.4036H20.4035H20.4033H20.4032H20.403H20.4029H20.4028H20.4026H20.4025H20.4023H20.4022H20.402H20.4019H20.4017H20.4016H20.4014H20.4013H20.4011H20.401H20.4008H20.4007H20.4006H20.4004H20.4003H20.4001H20.4H20.3998H20.3997H20.3995H20.3994H20.3992H20.3991H20.3989H20.3988H20.3987H20.3985H20.3984H20.3982H20.3981H20.3979H20.3978H20.3976H20.3975H20.3973H20.3972H20.397H20.3969H20.3967H20.3966H20.3965H20.3963H20.3962H20.396H20.3959H20.3957H20.3956H20.3954H20.3953H20.3951H20.395H20.3948H20.3947H20.3945H20.3944H20.3942H20.3941H20.394H20.3938H20.3937H20.3935H20.3934H20.3932H20.3931H20.3929H20.3928H20.3926H20.3925H20.3923H20.3922H20.392H20.3919H20.3917H20.3916H20.3914H20.3913H20.3911H20.391H20.3909H20.3907H20.3906H20.3904H20.3903H20.3901H20.39H20.3898H20.3897H20.3895H20.3894H20.3892H20.3891H20.3889H20.3888H20.3886H20.3885H20.3883H20.3882H20.388H20.3879H20.3877H20.3876H20.3874H20.3873H20.3871H20.387H20.3868H20.3867H20.3865H20.3864H20.3862H20.3861H20.3859H20.3858H20.3856H20.3855H20.3853H20.3852H20.385H20.3849H20.3847H20.3846H20.3844H20.3843H20.3841H20.384H20.3838H20.3837H20.3835H20.3834H20.3832H20.3831H20.3829H20.3827H20.3826H20.3824H20.3823H20.3821H20.382H20.3818H20.3817H20.3815H20.3814H20.3812H20.3811H20.3809H20.3808H20.3806H20.3804H20.3803H20.3801H20.38H20.3798H20.3797H20.3795H20.3794H20.3792H20.3791H20.3789H20.3787H20.3786H20.3784H20.3783H20.3781H20.378H20.3778H20.3777H20.3775H20.3773H20.3772H20.377H20.3769H20.3767H20.3766H20.3764H20.3762H20.3761H20.3759H20.3758H20.3756H20.3754H20.3753H20.3751H20.375H20.3748H20.3747H20.3745H20.3743H20.3742H20.374H20.3739H20.3737H20.3735H20.3734H20.3732H20.3731H20.3729H20.3727H20.3726H20.3724H20.3723H20.3721H20.3719H20.3718H20.3716H20.3714H20.3713H20.3711H20.371H20.3708H20.3706H20.3705H20.3703H20.3701H20.37H20.3698H20.3696H20.3695H20.3693H20.3692H20.369H20.3688H20.3687H20.3685H20.3683H20.3682H20.368H20.3678H20.3677H20.3675H20.3673H20.3672H20.367H20.3668H20.3667H20.3665H20.3663H20.3662H20.366H20.3658H20.3657H20.3655H20.3653H20.3651H20.365H20.3648H20.3646H20.3645H20.3643H20.3641H20.364H20.3638H20.3636H20.3634H20.3633H20.3631H20.3629H20.3628H20.3626H20.3624H20.3622H20.3621H20.3619H20.3617H20.3615H20.3614H20.3612H20.361H20.3608H20.3607H20.3605H20.3603H20.3601H20.36C20.2479 12.2296 20.1499 12.1445 20.1371 12.0258Z" fill="white" stroke="white"/>
<path d="M7.10862 5.8975L7.10863 5.89751L7.1118 5.89523C7.20192 5.83046 7.34885 5.85008 7.42188 5.94818C7.49273 6.05326 7.46552 6.19266 7.36888 6.2627C5.45494 7.62429 4.20759 9.73242 3.97261 12.0681C3.95912 12.1905 3.85623 12.2792 3.73998 12.2792H3.73987H3.73975H3.73963H3.73951H3.73939H3.73928H3.73916H3.73904H3.73892H3.7388H3.73868H3.73856H3.73844H3.73832H3.7382H3.73808H3.73796H3.73784H3.73772H3.73759H3.73747H3.73735H3.73723H3.73711H3.73698H3.73686H3.73674H3.73662H3.73649H3.73637H3.73624H3.73612H3.736H3.73587H3.73575H3.73562H3.7355H3.73537H3.73525H3.73512H3.735H3.73487H3.73474H3.73462H3.73449H3.73437H3.73424H3.73411H3.73398H3.73386H3.73373H3.7336H3.73347H3.73334H3.73322H3.73309H3.73296H3.73283H3.7327H3.73257H3.73244H3.73231H3.73218H3.73205H3.73192H3.73179H3.73166H3.73153H3.7314H3.73127H3.73114H3.73101H3.73088H3.73075H3.73061H3.73048H3.73035H3.73022H3.73008H3.72995H3.72982H3.72969H3.72955H3.72942H3.72929H3.72915H3.72902H3.72889H3.72875H3.72862H3.72848H3.72835H3.72821H3.72808H3.72795H3.72781H3.72768H3.72754H3.7274H3.72727H3.72713H3.727H3.72686H3.72673H3.72659H3.72645H3.72632H3.72618H3.72604H3.72591H3.72577H3.72563H3.72549H3.72536H3.72522H3.72508H3.72494H3.72481H3.72467H3.72453H3.72439H3.72425H3.72412H3.72398H3.72384H3.7237H3.72356H3.72342H3.72328H3.72314H3.723H3.72286H3.72272H3.72258H3.72244H3.7223H3.72216H3.72202H3.72188H3.72174H3.7216H3.72146H3.72132H3.72118H3.72104H3.7209H3.72076H3.72062H3.72047H3.72033H3.72019H3.72005H3.71991H3.71977H3.71962H3.71948H3.71934H3.7192H3.71906H3.71891H3.71877H3.71863H3.71849H3.71834H3.7182H3.71806H3.71792H3.71777H3.71763H3.71749H3.71734H3.7172H3.71706H3.71691H3.71677H3.71663H3.71648H3.71634H3.71619H3.71605H3.71591H3.71576H3.71562H3.71547H3.71533H3.71519H3.71504H3.7149H3.71475H3.71461H3.71446H3.71432H3.71417H3.71403H3.71389H3.71374H3.7136H3.71345H3.71331H3.71316H3.71302H3.71287H3.71272H3.71258H3.71243H3.71229H3.71214H3.712H3.71185H3.71171H3.71156H3.71142H3.71127H3.71112H3.71098H3.71083H3.71069H3.71054H3.7104H3.71025H3.7101H3.70996H3.70981H3.70967H3.70952H3.70937H3.70923H3.70908H3.70894H3.70879H3.70864H3.7085H3.70835H3.7082H3.70806H3.70791H3.70777H3.70762H3.70747H3.70733H3.70718H3.70703H3.70689H3.70674H3.70659H3.70645H3.7063H3.70616H3.70601H3.70586H3.70572H3.70557H3.70542H3.70528H3.70513H3.70498H3.70484H3.70469H3.70454H3.7044H3.70425H3.7041H3.70396H3.70381H3.70367H3.70352H3.70337H3.70323H3.70308H3.70293H3.70279H3.70264H3.70249H3.70235H3.7022H3.70216C3.59011 12.2587 3.50546 12.1526 3.51744 12.0296C3.77284 9.56373 5.07652 7.33415 7.10862 5.8975Z" fill="white" stroke="white"/>
<path d="M15.99 21.1003C14.76 21.6903 13.44 21.9903 12.06 21.9903C10.62 21.9903 9.24998 21.6703 7.96998 21.0203C7.60998 20.8503 7.46998 20.4103 7.64998 20.0503C7.81998 19.6903 8.25998 19.5503 8.61998 19.7203C9.24998 20.0403 9.91998 20.2603 10.6 20.3903C11.52 20.5703 12.46 20.5803 13.38 20.4203C14.06 20.3003 14.73 20.0903 15.35 19.7903C15.72 19.6203 16.16 19.7603 16.32 20.1303C16.5 20.4903 16.36 20.9303 15.99 21.1003Z" fill="white"/>
<path d="M12.05 2.00977C10.5 2.00977 9.22998 3.26977 9.22998 4.82977C9.22998 6.38977 10.49 7.64977 12.05 7.64977C13.61 7.64977 14.87 6.38977 14.87 4.82977C14.87 3.26977 13.61 2.00977 12.05 2.00977Z" fill="white"/>
<path d="M5.04998 13.8691C3.49998 13.8691 2.22998 15.1291 2.22998 16.6891C2.22998 18.2491 3.48998 19.5091 5.04998 19.5091C6.60998 19.5091 7.86998 18.2491 7.86998 16.6891C7.86998 15.1291 6.59998 13.8691 5.04998 13.8691Z" fill="white"/>
<path d="M18.95 13.8691C17.4 13.8691 16.13 15.1291 16.13 16.6891C16.13 18.2491 17.39 19.5091 18.95 19.5091C20.51 19.5091 21.77 18.2491 21.77 16.6891C21.77 15.1291 20.51 13.8691 18.95 13.8691Z" fill="white"/>
</svg>
