<svg width="20" height="20" viewBox="0 0 20 20" fill="none" xmlns="http://www.w3.org/2000/svg">
<path d="M17.5584 4.36159C16.2167 4.22826 14.875 4.12826 13.525 4.05326V4.04492L13.3417 2.96159C13.2167 2.19492 13.0334 1.04492 11.0834 1.04492H8.90005C6.95838 1.04492 6.77505 2.14492 6.64172 2.95326L6.46672 4.01992C5.69172 4.06992 4.91672 4.11992 4.14172 4.19492L2.44172 4.36159C2.09172 4.39492 1.84172 4.70326 1.87505 5.04492C1.90838 5.38659 2.20838 5.63659 2.55838 5.60326L4.25838 5.43659C8.62505 5.00326 13.0251 5.16992 17.4417 5.61159C17.4667 5.61159 17.4834 5.61159 17.5084 5.61159C17.8251 5.61159 18.1 5.36992 18.1334 5.04492C18.1584 4.70326 17.9084 4.39492 17.5584 4.36159Z" fill="white" fill-opacity="0.7"/>
<path d="M16.0254 6.78594C15.8254 6.5776 15.5504 6.46094 15.2671 6.46094H4.73378C4.45044 6.46094 4.16711 6.5776 3.97544 6.78594C3.78378 6.99427 3.67544 7.2776 3.69211 7.56927L4.20878 16.1193C4.30044 17.3859 4.41711 18.9693 7.32544 18.9693H12.6754C15.5838 18.9693 15.7004 17.3943 15.7921 16.1193L16.3088 7.5776C16.3254 7.2776 16.2171 6.99427 16.0254 6.78594ZM11.3838 14.7943H8.60878C8.26711 14.7943 7.98378 14.5109 7.98378 14.1693C7.98378 13.8276 8.26711 13.5443 8.60878 13.5443H11.3838C11.7254 13.5443 12.0088 13.8276 12.0088 14.1693C12.0088 14.5109 11.7254 14.7943 11.3838 14.7943ZM12.0838 11.4609H7.91711C7.57544 11.4609 7.29211 11.1776 7.29211 10.8359C7.29211 10.4943 7.57544 10.2109 7.91711 10.2109H12.0838C12.4254 10.2109 12.7088 10.4943 12.7088 10.8359C12.7088 11.1776 12.4254 11.4609 12.0838 11.4609Z" fill="white" fill-opacity="0.7"/>
</svg>
