<svg width="16" height="16" viewBox="0 0 16 16" fill="none" xmlns="http://www.w3.org/2000/svg">
<path d="M8.22689 13.8417C7.91367 13.8436 7.59983 13.84 7.28845 13.8026C4.43692 13.4602 2.22924 11.1505 2.02552 8.29274C1.89 6.39158 2.66225 4.50495 4.11964 3.27052C5.19042 2.36358 6.41704 1.93729 7.79276 1.84313C8.14295 1.83817 8.49239 1.84539 8.83986 1.89369C12.1645 2.35582 14.4064 5.51286 13.9341 8.77567C13.5807 11.2166 11.5849 13.237 9.18333 13.7233C8.86717 13.7873 8.54786 13.8159 8.22689 13.8417ZM7.76883 2.5615C6.22842 2.71562 4.94926 3.2297 3.93861 4.46561C2.09514 6.71992 2.37036 10.0759 4.64773 11.9245C5.69233 12.7724 6.88742 13.1505 8.22689 13.1247C9.24104 13.0551 10.2051 12.7529 11.0344 12.1559C12.538 11.0736 13.3985 9.38317 13.2669 7.51024C13.0684 4.68533 10.6057 2.4118 7.76883 2.5615Z" fill="white"/>
<path d="M4.78984 7.3974L4.78987 6.05684C4.78905 5.2514 4.77212 4.66662 5.76824 4.64355H8.75809C8.59118 4.88843 8.40555 5.12321 8.22705 5.35984C8.15371 5.3658 8.07787 5.36052 8.00421 5.36034L5.86827 5.35909C5.48784 5.35749 5.49912 5.38421 5.49984 5.74937L5.50024 7.3974H7.29349C7.11268 7.60102 6.94277 7.8969 6.78421 8.1228C6.71437 8.11996 6.64534 8.12074 6.57549 8.1228H5.50024V10.2601H4.78984V8.1228H3.90137C4.05084 7.86596 4.27009 7.64915 4.42905 7.3974H4.78984Z" fill="white"/>
<path d="M10.8075 6.18821C10.9137 6.18046 11.0252 6.18746 11.1321 6.18771L11.8268 6.18821L11.8294 6.18974C11.8272 6.23443 10.2721 7.97387 10.0851 8.20933C10.1883 8.34574 10.3053 8.47465 10.4171 8.60405C10.8867 9.14758 11.3308 9.7129 11.7959 10.2603H10.8075C10.5386 9.95477 10.2847 9.63558 10.0246 9.3228C9.90498 9.17893 9.72695 9.00174 9.63514 8.84683C9.48005 9.00168 9.35223 9.1933 9.2138 9.36377L8.77161 9.9109C8.70145 9.99862 8.54223 10.1493 8.52298 10.2603H7.66748C7.60583 10.2616 7.54405 10.2606 7.48242 10.2603C8.04839 9.5844 8.58127 8.88096 9.15208 8.20933C9.03323 8.02627 8.84927 7.84252 8.70814 7.67193L7.96598 6.77496C7.8193 6.5988 7.66877 6.4264 7.52639 6.24665C7.63573 6.25424 7.74967 6.24724 7.85955 6.24712L8.52298 6.24665C8.87014 6.67862 9.2637 7.18793 9.63514 7.58802C9.79827 7.37655 9.97236 7.17674 10.1449 6.97312L10.8075 6.18821Z" fill="white"/>
</svg>
