<svg width="16" height="16" viewBox="0 0 16 16" fill="none" xmlns="http://www.w3.org/2000/svg">
<path d="M7.70859 3.33697C7.70818 3.0569 7.59353 2.56021 7.96975 2.51855C8.39637 2.52529 8.2724 3.03251 8.27159 3.33697L10.6118 3.3375C10.7552 3.33631 10.9439 3.30137 11.0647 3.39912C11.1838 3.49553 11.2093 3.69737 11.0999 3.81072C10.9889 3.92562 10.7835 3.89469 10.6395 3.89475L8.27159 3.89447V5.31972C8.94625 5.29725 9.83878 5.68387 10.3674 6.06059C10.4237 6.10075 10.4767 6.14784 10.5407 6.17569C10.5309 6.3815 10.5293 6.68584 10.5407 6.891C9.75109 6.27891 9.08328 5.8329 8.00553 5.86472C7.2334 5.81375 6.35384 6.16984 5.75997 6.634C5.64928 6.72053 5.53209 6.80425 5.44787 6.91806V6.17569C5.94915 5.75315 7.02059 5.28628 7.70859 5.31972V3.89447L5.38718 3.89456C5.25031 3.89512 5.01637 3.93081 4.90618 3.828C4.74906 3.6814 4.798 3.38178 5.02884 3.34503C5.13112 3.32878 5.24068 3.33665 5.34412 3.33669L7.70859 3.33697Z" fill="white"/>
<path d="M1.90723 7.87371V5.78955H5.17458V7.87371C5.02671 7.8808 4.87567 7.87411 4.72736 7.87405L3.82299 7.87371V11.7927V13.136H3.25842V7.87371H1.90723ZM3.49395 6.32977C3.14983 6.32983 2.80512 6.33414 2.46106 6.32977V7.32074H3.59764H4.61758V6.32977H3.49395Z" fill="white"/>
<path d="M10.8228 7.88874C10.8314 7.65749 10.8231 7.42258 10.823 7.19099L10.8228 5.78955H14.1062V7.88874H12.7556V11.7927V13.1097H12.1953V7.88874H10.8228ZM11.4879 6.32977C11.4637 6.33086 11.4207 6.32693 11.4006 6.33908L11.3998 7.32074H13.4706C13.5882 7.31871 13.5348 7.08683 13.5346 6.96477L13.5344 6.32977H11.4879Z" fill="white"/>
<path d="M5.94229 11.2593C5.02616 10.2341 4.97916 8.68113 5.88466 7.62325C6.41385 7.005 7.06204 6.7031 7.86954 6.64104C8.69769 6.62272 9.42472 6.88344 10.0086 7.49738C10.9557 8.49316 11.0549 10.3118 10.0366 11.2848C10.2765 11.6337 10.532 11.9749 10.7821 12.3167C10.8889 12.4627 11.1731 12.7478 11.1527 12.9416C11.128 13.1759 10.8317 13.2696 10.6702 13.1094C10.3847 12.8263 9.86879 12.0201 9.6295 11.6742C9.11047 11.9882 8.77557 12.1859 8.11904 12.1958C7.66813 12.2368 7.15963 12.1075 6.7606 11.9C6.62991 11.8321 6.51235 11.7333 6.37529 11.6793L6.36222 11.6742C6.00922 11.9364 5.62013 12.841 5.28938 13.1133C5.13013 13.2445 4.8415 13.169 4.81475 12.9483C4.79235 12.7634 5.07079 12.4722 5.17154 12.3299L5.54057 11.8193C5.67416 11.6316 5.80232 11.4428 5.94229 11.2593ZM7.92538 7.20938C6.69932 7.22954 5.77938 8.26575 5.79663 9.47288C5.81372 10.6677 6.88794 11.7023 8.08932 11.6361C10.0773 11.5405 10.9467 9.07713 9.48669 7.78132C9.08319 7.42316 8.48216 7.16935 7.93722 7.20847L7.92538 7.20938Z" fill="white"/>
</svg>
