<svg width="24" height="24" viewBox="0 0 24 24" fill="none" xmlns="http://www.w3.org/2000/svg">
<path d="M11.8749 3.42971L11.8749 3.42971L11.877 3.42658C12.022 3.20745 12.3005 2.98998 12.6516 2.86588C12.9984 2.74331 13.3704 2.72781 13.695 2.84908L13.7027 2.85195L13.7105 2.85456C14.4627 3.10787 14.955 3.96783 14.8011 4.68594L14.7983 4.699L14.7962 4.71218L14.2762 7.98218L14.2761 7.98216L14.2744 7.99463C14.2167 8.42757 14.3329 8.83597 14.5914 9.15531L14.5992 9.1649L14.6074 9.17411C14.868 9.4654 15.2516 9.65071 15.67 9.65071H19.78C20.4353 9.65071 20.9507 9.91299 21.2421 10.3199C21.5133 10.7064 21.5837 11.2317 21.3784 11.8146L21.3783 11.8146L21.375 11.8247L18.915 19.3147L18.9093 19.3319L18.9049 19.3494C18.6546 20.3508 17.5175 21.2207 16.39 21.2207H12.49C12.2057 21.2207 11.8514 21.1709 11.5231 21.0729C11.1845 20.9717 10.9336 20.8372 10.8036 20.7072L10.7811 20.6847L10.7559 20.6652L9.47591 19.6752L9.47593 19.6752L9.47132 19.6717C9.10877 19.3979 8.89001 18.9568 8.89001 18.4907V8.33071C8.89001 8.03092 8.97994 7.73754 9.14551 7.48885C9.14569 7.48859 9.14586 7.48832 9.14604 7.48806L11.8749 3.42971Z" fill="white" stroke="white"/>
<path d="M4.18 6.88086H5.21C5.93877 6.88086 6.32401 7.02534 6.53617 7.22768C6.74247 7.42444 6.89 7.77728 6.89 8.46086V18.5209C6.89 19.2044 6.74247 19.5573 6.53617 19.754C6.32401 19.9564 5.93877 20.1009 5.21 20.1009H4.18C3.45123 20.1009 3.06599 19.9564 2.85383 19.754C2.64753 19.5573 2.5 19.2044 2.5 18.5209V8.46086C2.5 7.77728 2.64753 7.42444 2.85383 7.22768C3.06599 7.02534 3.45123 6.88086 4.18 6.88086Z" fill="white" stroke="white"/>
</svg>
