<svg width="16" height="16" viewBox="0 0 16 16" fill="none" xmlns="http://www.w3.org/2000/svg">
<path d="M11.5327 2.3451C11.7391 2.1767 11.9149 1.84214 12.1818 1.78224C12.3977 1.761 12.5028 1.9156 12.6403 2.05465L13.7068 3.11835C13.8777 3.285 14.2205 3.50863 14.0417 3.78556C13.939 3.94463 13.6141 4.21669 13.467 4.38275C13.5621 4.58594 13.5876 4.7921 13.3136 4.88613C13.1891 4.92888 13.1115 4.88835 13.0023 4.83297C12.5936 5.18835 12.5267 5.46678 11.8879 5.45094C11.796 5.53016 11.7136 5.62097 11.6279 5.70678C11.1273 6.20803 10.6357 6.71897 10.1277 7.21263C10.9897 8.15563 10.8164 9.65135 9.68221 10.3298C9.34768 10.5299 9.06181 10.5324 8.79724 10.863C8.6134 11.0928 8.60378 11.318 8.50656 11.5781C8.13787 12.5643 7.71484 13.4706 6.62174 13.8067C5.77712 14.0664 5.06484 13.8527 4.32387 13.4616C3.67927 13.0876 3.08786 12.5594 2.64639 11.9556C1.7064 10.6698 1.5845 8.89816 3.04852 7.91813C3.46009 7.6426 3.94709 7.44197 4.42177 7.29785C5.30256 7.03041 5.16674 6.98703 5.56187 6.18019C6.06952 5.1435 7.41021 4.89613 8.35577 5.46419C8.46784 5.5315 8.56984 5.61175 8.67337 5.69122L9.33974 5.02363C9.7174 4.65178 10.0996 4.28278 10.4604 3.89441L10.4603 3.88097C10.4566 3.3591 10.7263 3.14522 11.0629 2.80216C11.0392 2.78243 11.0211 2.76178 11.0018 2.73768C10.8901 2.38903 11.249 2.14951 11.5327 2.3451ZM12.2395 2.57609C11.8706 2.91665 11.3333 3.41522 11.0018 3.79285C11.221 4.02235 11.4522 4.24088 11.6761 4.46582L11.9468 4.74044C11.9865 4.78088 12.026 4.82803 12.0687 4.86488C12.2518 4.64669 12.5138 4.41847 12.72 4.21319C12.9096 4.02425 13.1017 3.80044 13.3042 3.62919C13.0774 3.41728 12.439 2.70594 12.2395 2.57609ZM10.7694 4.5161C10.5992 4.66191 10.3747 4.89694 10.2075 5.06191L8.48456 6.78303C8.22343 7.03947 7.94818 7.29132 7.70627 7.56591C7.99071 7.7296 8.1279 7.85782 8.29012 8.14422L10.3722 6.06116C10.7005 5.73191 11.0165 5.3901 11.3512 5.06747L11.0089 4.73485C10.9364 4.66422 10.8559 4.56625 10.7694 4.5161ZM7.16871 5.79985C5.97603 5.90528 6.17456 6.96985 5.42993 7.54975C5.1409 7.77482 4.76834 7.82938 4.43056 7.94528C4.00893 8.08991 3.54827 8.3 3.20212 8.58738C2.21061 9.4105 2.51721 10.7977 3.22581 11.6928C3.86137 12.4958 4.98927 13.3747 6.0459 13.2756C7.06399 13.1801 7.38784 12.5632 7.74634 11.7363C7.88749 11.4107 7.98684 11.0217 8.12287 10.7389C8.47596 10.0695 8.78865 10.1149 9.34396 9.78113C10.1569 9.29253 10.2488 8.35822 9.64924 7.66847C9.43943 7.8901 9.22831 8.11135 9.01112 8.32578L8.65909 8.67822C8.59043 8.74788 8.51737 8.81685 8.45481 8.892C8.43693 8.99563 8.42793 9.10225 8.4019 9.20413C8.22184 9.90828 7.47181 10.3792 6.75974 10.2496C5.2224 9.96975 5.18843 7.67903 6.75693 7.42694C6.82899 7.41538 6.90324 7.411 6.97468 7.39719C7.4009 6.99119 7.79834 6.55528 8.22418 6.14891C7.91293 5.91325 7.57259 5.75778 7.16871 5.79985ZM7.00168 8.042C6.26156 8.1116 5.95324 8.99157 6.50099 9.4391C6.6469 9.55828 6.8509 9.64103 7.04106 9.62894C8.20181 9.52244 7.94265 7.95919 7.00168 8.042Z" fill="white"/>
<path d="M5.75999 11.8582C5.55664 11.8679 5.46767 11.7498 5.33449 11.6184L4.30652 10.5877C4.21774 10.5007 3.97155 10.3037 3.94214 10.1808C3.8958 9.98734 3.99217 9.82874 4.1883 9.79053C4.29839 9.78378 4.38017 9.79859 4.46186 9.87275C4.70777 10.0959 5.95267 11.3058 6.00002 11.4342C6.07192 11.6292 5.94567 11.8029 5.75999 11.8582Z" fill="white"/>
</svg>
