<svg width="16" height="16" viewBox="0 0 16 16" fill="none" xmlns="http://www.w3.org/2000/svg">
<path d="M13.4886 13.0222L3.03891 13.0226C2.4255 13.0228 2.29165 13.105 2.29807 12.4925L2.29893 3.56678C2.29891 3.30872 2.18518 2.71167 2.51234 2.66502L13.1608 2.66456C13.7656 2.66007 13.7027 2.67486 13.7024 3.20462L13.7021 11.8143C13.7022 12.0862 13.7063 12.3588 13.701 12.6307C13.6975 12.8139 13.6828 12.9517 13.4886 13.0222ZM2.87183 3.226V12.4536H4.47086C4.48055 12.4407 4.47061 11.632 4.47061 11.5578L4.47086 8.43409H3.86677V3.226H2.87183ZM4.43452 3.226V7.85153H5.02299V3.226H4.43452ZM5.60217 3.226V8.43409H5.04764V12.4536H7.18367H7.73224V8.43409C7.54355 8.4229 7.34989 8.43478 7.16055 8.43409V3.226H5.60217ZM7.73224 3.226V7.85153L8.10396 7.85265C8.1628 7.85309 8.23139 7.86097 8.28849 7.85153L8.28846 4.7714C8.28846 4.25653 8.28214 3.74078 8.28849 3.226H7.73224ZM8.85655 3.226V8.43409C8.66733 8.43359 8.47764 8.43062 8.28849 8.43409V12.4536C8.51902 12.4584 8.75033 12.4537 8.98096 12.4536L10.3555 12.4536H10.9402V8.43409H10.4135V3.226H8.85655ZM10.981 3.226V7.85153H11.5435V3.226H10.981ZM12.1167 3.226V8.43409H11.5146V12.4536C11.8516 12.4608 12.1902 12.4535 12.5274 12.4536C12.7255 12.4539 12.9275 12.463 13.1251 12.4536V3.226H12.1167Z" fill="white"/>
</svg>
