<svg width="24" height="24" viewBox="0 0 24 24" fill="none" xmlns="http://www.w3.org/2000/svg">
<path d="M11.6319 13.5719L11.6319 13.5719L11.6364 13.5692L12.406 13.1095C12.4061 13.1094 12.4062 13.1094 12.4063 13.1093C13.0778 12.7089 13.5 11.9656 13.5 11.18V10.25C13.5 9.54672 12.9087 9.01 12.24 9.01C11.5539 9.01 10.99 9.57386 10.99 10.26V11.0455L10.3541 11.4304C9.74754 11.7871 9.57637 12.5561 9.91811 13.1419L9.91804 13.142L9.9229 13.15C10.1571 13.5347 10.5722 13.75 10.99 13.75C11.2298 13.75 11.4458 13.6805 11.6319 13.5719ZM9.25 11.5C9.25 9.98614 10.4861 8.75 12 8.75C13.5139 8.75 14.75 9.98614 14.75 11.5C14.75 13.0139 13.5139 14.25 12 14.25C10.4861 14.25 9.25 13.0139 9.25 11.5Z" fill="white" stroke="white"/>
<path d="M18.54 4.17063L13.04 2.11062C12.47 1.90063 11.54 1.90063 10.97 2.11062L5.46999 4.17063C4.40999 4.57063 3.54999 5.81063 3.54999 6.94063V15.0406C3.54999 15.8506 4.07999 16.9206 4.72999 17.4006L10.23 21.5106C11.2 22.2406 12.79 22.2406 13.76 21.5106L19.26 17.4006C19.91 16.9106 20.44 15.8506 20.44 15.0406V6.94063C20.45 5.81063 19.59 4.57063 18.54 4.17063ZM12 16.2506C9.37999 16.2506 7.24999 14.1206 7.24999 11.5006C7.24999 8.88062 9.37999 6.75063 12 6.75063C14.62 6.75063 16.75 8.88062 16.75 11.5006C16.75 14.1206 14.62 16.2506 12 16.2506Z" fill="white"/>
</svg>
