<svg width="44" height="44" viewBox="0 0 44 44" fill="none" xmlns="http://www.w3.org/2000/svg">
<rect y="0.00292969" width="44" height="44" rx="12" fill="#1E1E1E" fill-opacity="0.7"/>
<path fill-rule="evenodd" clip-rule="evenodd" d="M24.8161 17.3148C23.7138 16.6564 22.8138 16.1188 22.0717 15.7647C21.326 15.4089 20.5496 15.1405 19.7324 15.2294C18.5512 15.3578 17.5026 15.9962 16.8321 16.9509C16.3771 17.5989 16.2178 18.3853 16.1437 19.2216C16.0697 20.0555 16.0698 21.1241 16.0698 22.4478V22.5581C16.0698 23.8817 16.0697 24.9504 16.1437 25.7842C16.2178 26.6205 16.3771 27.407 16.8321 28.0549C17.5026 29.0097 18.5512 29.648 19.7324 29.7765C20.5496 29.8653 21.326 29.597 22.0717 29.2412C22.8138 28.8871 23.7138 28.3495 24.8161 27.691L24.9204 27.6287C26.0238 26.9697 26.9235 26.4322 27.59 25.9451C28.2666 25.4505 28.8532 24.9042 29.1681 24.1725C29.6261 23.1082 29.6261 21.8976 29.1681 20.8334C28.8532 20.1016 28.2666 19.5554 27.59 19.0608C26.9236 18.5736 26.0238 18.0362 24.9205 17.3772L24.8161 17.3148ZM19.9965 17.5174C20.1206 17.5039 20.3884 17.527 21.0252 17.8308C21.6538 18.1308 22.4577 18.6095 23.6256 19.3071C24.793 20.0045 25.5964 20.4858 26.163 20.8999C26.7298 21.3142 26.9092 21.5579 26.9793 21.7207C27.1929 22.2172 27.1929 22.7887 26.9793 23.2851C26.9092 23.448 26.7298 23.6917 26.163 24.106C25.5964 24.5201 24.793 25.0014 23.6256 25.6987C22.4577 26.3964 21.6538 26.8751 21.0252 27.175C20.3884 27.4789 20.1206 27.502 19.9965 27.4885C19.5355 27.4383 19.0923 27.1856 18.7922 26.7583C18.6909 26.614 18.572 26.319 18.507 25.5868C18.4429 24.8636 18.4419 23.8947 18.4419 22.5029C18.4419 21.1112 18.4429 20.1422 18.507 19.419C18.572 18.6868 18.6909 18.3919 18.7922 18.2476C19.0923 17.8203 19.5355 17.5675 19.9965 17.5174Z" fill="#FAFAFA"/>
<path fill-rule="evenodd" clip-rule="evenodd" d="M22 6.00293C12.6112 6.00293 5 13.3902 5 22.5029C5 31.6156 12.6112 39.0029 22 39.0029C31.3888 39.0029 39 31.6156 39 22.5029C39 13.3902 31.3888 6.00293 22 6.00293ZM7.37209 22.5029C7.37209 14.6618 13.9212 8.30526 22 8.30526C30.0788 8.30526 36.6279 14.6618 36.6279 22.5029C36.6279 30.3441 30.0788 36.7006 22 36.7006C13.9212 36.7006 7.37209 30.3441 7.37209 22.5029Z" fill="#FAFAFA"/>
</svg>
