<svg width="32" height="32" viewBox="0 0 32 32" fill="none" xmlns="http://www.w3.org/2000/svg">
<rect x="0.5" y="0.5" width="31" height="31" rx="7.5" stroke="#E1E1E1"/>
<path d="M14.664 13.1357C14.7344 13.1357 14.7745 13.0855 14.7896 13.0202C14.9553 12.1865 14.9453 12.1664 15.8142 11.9957C15.8895 11.9806 15.9347 11.9404 15.9347 11.8701C15.9347 11.7998 15.8895 11.7596 15.8192 11.7446C14.9403 11.5638 14.9453 11.5437 14.7896 10.715C14.7796 10.6497 14.7344 10.6045 14.664 10.6045C14.5937 10.6045 14.5536 10.6497 14.5435 10.715C14.3728 11.5537 14.3878 11.5838 13.5139 11.7446C13.4436 11.7546 13.3984 11.7998 13.3984 11.8701C13.3984 11.9354 13.4436 11.9806 13.5139 11.9957C14.3878 12.1715 14.3828 12.1915 14.5435 13.0202C14.5536 13.0855 14.5937 13.1357 14.664 13.1357ZM18.9682 14.9237C19.0485 14.9237 19.0988 14.8634 19.1138 14.7881C19.2946 13.8138 19.2846 13.7635 20.3091 13.5878C20.3945 13.5727 20.4498 13.5225 20.4498 13.4421C20.4498 13.3617 20.3945 13.3115 20.3142 13.2965C19.2846 13.1106 19.2695 13.0654 19.1138 12.0961C19.0988 12.0158 19.0485 11.9605 18.9682 11.9605C18.8878 11.9605 18.8326 12.0158 18.8225 12.0961C18.6467 13.0755 18.6518 13.1357 17.6172 13.2965C17.5418 13.3065 17.4816 13.3617 17.4816 13.4421C17.4866 13.5225 17.5368 13.5727 17.6172 13.5878C18.6518 13.7686 18.6618 13.8188 18.8225 14.7881C18.8326 14.8634 18.8878 14.9237 18.9682 14.9237ZM11.8967 16.4304C11.9771 16.4304 12.0323 16.3751 12.0424 16.2948C12.2031 15.3205 12.2182 15.2702 13.2427 15.0944C13.3231 15.0794 13.3783 15.0292 13.3783 14.9488C13.3783 14.8684 13.3231 14.8182 13.2478 14.8032C12.2132 14.6173 12.2132 14.5721 12.0424 13.6028C12.0273 13.5225 11.9771 13.4672 11.8967 13.4672C11.8164 13.4672 11.7662 13.5225 11.7511 13.6028C11.5904 14.5822 11.5803 14.6324 10.5508 14.8032C10.4704 14.8182 10.4152 14.8684 10.4152 14.9488C10.4152 15.0292 10.4704 15.0794 10.5457 15.0944C11.5803 15.2753 11.5803 15.3305 11.7511 16.2998C11.7662 16.3751 11.8164 16.4304 11.8967 16.4304ZM20.495 20.7395C20.7411 20.9907 21.1629 20.9856 21.404 20.7395C21.6501 20.4834 21.6451 20.0816 21.404 19.8305L16.6328 15.0342C16.3867 14.7881 15.9648 14.7881 15.7238 15.0342C15.4777 15.2903 15.4827 15.6971 15.7238 15.9432L20.495 20.7395ZM14.3175 20.8651C14.423 20.8651 14.4983 20.7948 14.5134 20.6793C14.6741 19.3232 14.7394 19.2831 16.1205 19.0671C16.2461 19.047 16.3214 18.9817 16.3214 18.8712C16.3214 18.7658 16.2461 18.6955 16.1456 18.6754C14.7444 18.4042 14.6741 18.4142 14.5134 17.0632C14.4983 16.9477 14.423 16.8774 14.3175 16.8774C14.212 16.8774 14.1367 16.9477 14.1216 17.0582C13.9509 18.4343 13.9007 18.4845 12.4944 18.6754C12.394 18.6854 12.3136 18.7658 12.3136 18.8712C12.3136 18.9767 12.3889 19.047 12.4894 19.0671C13.9057 19.3383 13.9459 19.3383 14.1216 20.6893C14.1367 20.7948 14.212 20.8651 14.3175 20.8651ZM20.736 20.3327L17.8984 17.4951L18.1847 17.2088L21.0223 20.0515C21.1278 20.1519 21.1579 20.2725 21.0575 20.3779C20.962 20.4683 20.8415 20.4432 20.736 20.3327Z" fill="white"/>
</svg>
