<svg width="25" height="24" viewBox="0 0 25 24" fill="none" xmlns="http://www.w3.org/2000/svg">
<path d="M3.80645 10.1593C3.2113 10.1593 3.06063 10.6113 3.38457 11.0558L5.23028 13.6021C5.47888 13.9562 5.87816 13.9487 6.11923 13.6021L7.96493 11.0483C8.2738 10.6189 8.13067 10.1593 7.54306 10.1593H6.45823C7.13625 7.4548 9.56956 5.47349 12.5001 5.47349C14.5115 5.48103 16.2744 6.41518 17.4044 7.89927C17.7133 8.25335 18.1653 8.36635 18.5344 8.09515C18.8809 7.84654 18.9487 7.35686 18.6097 6.95006C17.2236 5.13449 14.9334 3.91406 12.5001 3.91406C8.75595 3.91406 5.58435 6.61858 4.86114 10.1593H3.80645ZM12.2213 7.3418C11.8522 7.3418 11.5584 7.6356 11.5584 7.99721V12.0804C11.5584 12.2612 11.6187 12.4269 11.7467 12.6002L13.5472 14.9657C13.8109 15.3198 14.2027 15.38 14.5266 15.1465C14.8355 14.928 14.8656 14.5287 14.6245 14.2048L12.8768 11.8544V7.99721C12.8768 7.6356 12.583 7.3418 12.2213 7.3418ZM12.5001 19.4933C16.2442 19.4933 19.4158 16.7888 20.139 13.248H21.1937C21.7889 13.248 21.9395 12.796 21.6156 12.3516L19.7774 9.80525C19.5213 9.45871 19.122 9.45871 18.8809 9.80525L17.0352 12.3591C16.7264 12.796 16.8695 13.248 17.4571 13.248H18.5495C17.8639 15.9526 15.4306 17.9414 12.5001 17.9414C10.4886 17.9339 8.72581 16.9922 7.59579 15.5081C7.28692 15.154 6.84244 15.041 6.46577 15.3122C6.11923 15.5608 6.05143 16.0505 6.39043 16.4648C7.77659 18.2729 10.0668 19.4933 12.5001 19.4933Z" fill="white" fill-opacity="0.7"/>
</svg>
